G04 #@! TF.GenerationSoftware,KiCad,Pcbnew,(6.0.6)*
G04 #@! TF.CreationDate,2022-08-10T20:14:49+02:00*
G04 #@! TF.ProjectId,joystick,6a6f7973-7469-4636-9b2e-6b696361645f,rev?*
G04 #@! TF.SameCoordinates,Original*
G04 #@! TF.FileFunction,Copper,L1,Top*
G04 #@! TF.FilePolarity,Positive*
%FSLAX46Y46*%
G04 Gerber Fmt 4.6, Leading zero omitted, Abs format (unit mm)*
G04 Created by KiCad (PCBNEW (6.0.6)) date 2022-08-10 20:14:49*
%MOMM*%
%LPD*%
G01*
G04 APERTURE LIST*
G04 #@! TA.AperFunction,ComponentPad*
%ADD10R,1.700000X1.700000*%
G04 #@! TD*
G04 #@! TA.AperFunction,ComponentPad*
%ADD11O,1.700000X1.700000*%
G04 #@! TD*
G04 #@! TA.AperFunction,ComponentPad*
%ADD12C,3.000000*%
G04 #@! TD*
G04 #@! TA.AperFunction,ViaPad*
%ADD13C,0.800000*%
G04 #@! TD*
G04 #@! TA.AperFunction,Conductor*
%ADD14C,0.250000*%
G04 #@! TD*
G04 APERTURE END LIST*
D10*
X125730000Y-95016000D03*
D11*
X125730000Y-92476000D03*
X128270000Y-95016000D03*
X128270000Y-92476000D03*
X130810000Y-95016000D03*
X130810000Y-92476000D03*
X133350000Y-95016000D03*
X133350000Y-92476000D03*
X135890000Y-95016000D03*
X135890000Y-92476000D03*
X138430000Y-95016000D03*
X138430000Y-92476000D03*
X140970000Y-95016000D03*
X140970000Y-92476000D03*
X143510000Y-95016000D03*
X143510000Y-92476000D03*
X146050000Y-95016000D03*
X146050000Y-92476000D03*
X148590000Y-95016000D03*
X148590000Y-92476000D03*
X151130000Y-95016000D03*
X151130000Y-92476000D03*
X153670000Y-95016000D03*
X153670000Y-92476000D03*
X156210000Y-95016000D03*
X156210000Y-92476000D03*
X158750000Y-95016000D03*
X158750000Y-92476000D03*
X161290000Y-95016000D03*
X161290000Y-92476000D03*
X163830000Y-95016000D03*
X163830000Y-92476000D03*
D12*
X130980000Y-97790000D03*
X134980000Y-97790000D03*
X138980000Y-97790000D03*
X145480000Y-97790000D03*
X149480000Y-97790000D03*
X153480000Y-97790000D03*
X157480000Y-97790000D03*
D11*
X119380000Y-102870000D03*
X119380000Y-100330000D03*
D10*
X119380000Y-97790000D03*
D11*
X115570000Y-102885000D03*
X115570000Y-100345000D03*
D10*
X115570000Y-97805000D03*
D11*
X111760000Y-102885000D03*
X111760000Y-100345000D03*
D10*
X111760000Y-97805000D03*
D13*
X122428000Y-96520000D03*
X122428000Y-101346000D03*
X166116000Y-104902000D03*
X166116000Y-90170000D03*
X109220000Y-105156000D03*
X108966000Y-89662000D03*
X121412000Y-92202000D03*
X123444000Y-90678000D03*
X141478000Y-104902000D03*
X138176000Y-104431500D03*
X129794000Y-102870000D03*
X138938000Y-102819500D03*
X134112000Y-102870000D03*
D14*
X122428000Y-95778000D02*
X122428000Y-96520000D01*
X125730000Y-92476000D02*
X122428000Y-95778000D01*
X117856000Y-101346000D02*
X119380000Y-102870000D01*
X121040288Y-94742000D02*
X120078000Y-94742000D01*
X124481288Y-91301000D02*
X121040288Y-94742000D01*
X117856000Y-96964000D02*
X117856000Y-101346000D01*
X142335000Y-91301000D02*
X124481288Y-91301000D01*
X143510000Y-92476000D02*
X142335000Y-91301000D01*
X144425499Y-90851499D02*
X146050000Y-92476000D01*
X124295099Y-90851499D02*
X144425499Y-90851499D01*
X112305500Y-91402500D02*
X123744098Y-91402500D01*
X109982000Y-93726000D02*
X112305500Y-91402500D01*
X109982000Y-101107000D02*
X109982000Y-93726000D01*
X111760000Y-102885000D02*
X109982000Y-101107000D01*
X123698000Y-90170000D02*
X123444000Y-90424000D01*
X156444000Y-90170000D02*
X123698000Y-90170000D01*
X123744098Y-91402500D02*
X124295099Y-90851499D01*
X123444000Y-90424000D02*
X123444000Y-90678000D01*
X158750000Y-92476000D02*
X156444000Y-90170000D01*
X120078000Y-94742000D02*
X117856000Y-96964000D01*
X121412000Y-92202000D02*
X115809000Y-97805000D01*
X115809000Y-97805000D02*
X115570000Y-97805000D01*
X122936000Y-97790000D02*
X119380000Y-97790000D01*
X124968000Y-99822000D02*
X122936000Y-97790000D01*
X139528940Y-99822000D02*
X124968000Y-99822000D01*
X142240000Y-97110940D02*
X139528940Y-99822000D01*
X142240000Y-94234000D02*
X142240000Y-97110940D01*
X142823000Y-93651000D02*
X142240000Y-94234000D01*
X155035000Y-93651000D02*
X142823000Y-93651000D01*
X156210000Y-92476000D02*
X155035000Y-93651000D01*
X142998499Y-100271501D02*
X132392499Y-100271501D01*
X145480000Y-97790000D02*
X142998499Y-100271501D01*
X132392499Y-100271501D02*
X129794000Y-102870000D01*
X141224000Y-105156000D02*
X141478000Y-104902000D01*
X159600000Y-95866000D02*
X158750000Y-95016000D01*
X136906000Y-105156000D02*
X141224000Y-105156000D01*
X159600000Y-98250940D02*
X159600000Y-95866000D01*
X152224440Y-105626500D02*
X159600000Y-98250940D01*
X116649799Y-105626500D02*
X152224440Y-105626500D01*
X113792000Y-102768701D02*
X116649799Y-105626500D01*
X113792000Y-99837000D02*
X113792000Y-102768701D01*
X115570000Y-102885000D02*
X117333000Y-104648000D01*
X136398000Y-104648000D02*
X136906000Y-105156000D01*
X111760000Y-97805000D02*
X113792000Y-99837000D01*
X137942999Y-104198499D02*
X138176000Y-104431500D01*
X117333000Y-104648000D02*
X136398000Y-104648000D01*
X123248499Y-104198499D02*
X137942999Y-104198499D01*
X119380000Y-100330000D02*
X123248499Y-104198499D01*
X144450500Y-102819500D02*
X138938000Y-102819500D01*
X149480000Y-97790000D02*
X144450500Y-102819500D01*
X134786000Y-103544000D02*
X134112000Y-102870000D01*
X147726000Y-103544000D02*
X134786000Y-103544000D01*
X153480000Y-97790000D02*
X147726000Y-103544000D01*
G04 #@! TA.AperFunction,Conductor*
G36*
X167073621Y-89174502D02*
G01*
X167120114Y-89228158D01*
X167131500Y-89280500D01*
X167131500Y-105791500D01*
X167111498Y-105859621D01*
X167057842Y-105906114D01*
X167005500Y-105917500D01*
X153133534Y-105917500D01*
X153065413Y-105897498D01*
X153018920Y-105843842D01*
X153008816Y-105773568D01*
X153038310Y-105708988D01*
X153044439Y-105702405D01*
X156418697Y-102328148D01*
X159992253Y-98754592D01*
X160000539Y-98747052D01*
X160007018Y-98742940D01*
X160053644Y-98693288D01*
X160056398Y-98690447D01*
X160076135Y-98670710D01*
X160078615Y-98667513D01*
X160086320Y-98658491D01*
X160111159Y-98632040D01*
X160116586Y-98626261D01*
X160120405Y-98619315D01*
X160120407Y-98619312D01*
X160126348Y-98608506D01*
X160137199Y-98591987D01*
X160144758Y-98582241D01*
X160149614Y-98575981D01*
X160152759Y-98568712D01*
X160152762Y-98568708D01*
X160167174Y-98535403D01*
X160172391Y-98524753D01*
X160193695Y-98486000D01*
X160198733Y-98466377D01*
X160205137Y-98447674D01*
X160210033Y-98436360D01*
X160210033Y-98436359D01*
X160213181Y-98429085D01*
X160214420Y-98421262D01*
X160214423Y-98421252D01*
X160220099Y-98385416D01*
X160222505Y-98373796D01*
X160231528Y-98338651D01*
X160231528Y-98338650D01*
X160233500Y-98330970D01*
X160233500Y-98310716D01*
X160235051Y-98291005D01*
X160236980Y-98278826D01*
X160238220Y-98270997D01*
X160234059Y-98226978D01*
X160233500Y-98215121D01*
X160233500Y-96173004D01*
X160253502Y-96104883D01*
X160307158Y-96058390D01*
X160377432Y-96048286D01*
X160439984Y-96076060D01*
X160508126Y-96132632D01*
X160701000Y-96245338D01*
X160909692Y-96325030D01*
X160914760Y-96326061D01*
X160914763Y-96326062D01*
X160993436Y-96342068D01*
X161128597Y-96369567D01*
X161133772Y-96369757D01*
X161133774Y-96369757D01*
X161346673Y-96377564D01*
X161346677Y-96377564D01*
X161351837Y-96377753D01*
X161356957Y-96377097D01*
X161356959Y-96377097D01*
X161568288Y-96350025D01*
X161568289Y-96350025D01*
X161573416Y-96349368D01*
X161589985Y-96344397D01*
X161782429Y-96286661D01*
X161782434Y-96286659D01*
X161787384Y-96285174D01*
X161987994Y-96186896D01*
X162169860Y-96057173D01*
X162196376Y-96030750D01*
X162313616Y-95913918D01*
X162328096Y-95899489D01*
X162335786Y-95888788D01*
X162458453Y-95718077D01*
X162459776Y-95719028D01*
X162506645Y-95675857D01*
X162576580Y-95663625D01*
X162642026Y-95691144D01*
X162669875Y-95722994D01*
X162729987Y-95821088D01*
X162876250Y-95989938D01*
X163048126Y-96132632D01*
X163241000Y-96245338D01*
X163449692Y-96325030D01*
X163454760Y-96326061D01*
X163454763Y-96326062D01*
X163533436Y-96342068D01*
X163668597Y-96369567D01*
X163673772Y-96369757D01*
X163673774Y-96369757D01*
X163886673Y-96377564D01*
X163886677Y-96377564D01*
X163891837Y-96377753D01*
X163896957Y-96377097D01*
X163896959Y-96377097D01*
X164108288Y-96350025D01*
X164108289Y-96350025D01*
X164113416Y-96349368D01*
X164129985Y-96344397D01*
X164322429Y-96286661D01*
X164322434Y-96286659D01*
X164327384Y-96285174D01*
X164527994Y-96186896D01*
X164709860Y-96057173D01*
X164736376Y-96030750D01*
X164853616Y-95913918D01*
X164868096Y-95899489D01*
X164875786Y-95888788D01*
X164995435Y-95722277D01*
X164998453Y-95718077D01*
X165019320Y-95675857D01*
X165095136Y-95522453D01*
X165095137Y-95522451D01*
X165097430Y-95517811D01*
X165146120Y-95357555D01*
X165160865Y-95309023D01*
X165160865Y-95309021D01*
X165162370Y-95304069D01*
X165191529Y-95082590D01*
X165193156Y-95016000D01*
X165174852Y-94793361D01*
X165120431Y-94576702D01*
X165031354Y-94371840D01*
X164910014Y-94184277D01*
X164759670Y-94019051D01*
X164755619Y-94015852D01*
X164755615Y-94015848D01*
X164588414Y-93883800D01*
X164588410Y-93883798D01*
X164584359Y-93880598D01*
X164574391Y-93875095D01*
X164547259Y-93860118D01*
X164542569Y-93857529D01*
X164492598Y-93807097D01*
X164477826Y-93737654D01*
X164502942Y-93671248D01*
X164530294Y-93644641D01*
X164705328Y-93519792D01*
X164713200Y-93513139D01*
X164864052Y-93362812D01*
X164870730Y-93354965D01*
X164995003Y-93182020D01*
X165000313Y-93173183D01*
X165094670Y-92982267D01*
X165098469Y-92972672D01*
X165160377Y-92768910D01*
X165162555Y-92758837D01*
X165163986Y-92747962D01*
X165161775Y-92733778D01*
X165148617Y-92730000D01*
X161162000Y-92730000D01*
X161093879Y-92709998D01*
X161047386Y-92656342D01*
X161036000Y-92604000D01*
X161036000Y-92203885D01*
X161544000Y-92203885D01*
X161548475Y-92219124D01*
X161549865Y-92220329D01*
X161557548Y-92222000D01*
X163557885Y-92222000D01*
X163573124Y-92217525D01*
X163574329Y-92216135D01*
X163576000Y-92208452D01*
X163576000Y-92203885D01*
X164084000Y-92203885D01*
X164088475Y-92219124D01*
X164089865Y-92220329D01*
X164097548Y-92222000D01*
X165148344Y-92222000D01*
X165161875Y-92218027D01*
X165163180Y-92208947D01*
X165121214Y-92041875D01*
X165117894Y-92032124D01*
X165032972Y-91836814D01*
X165028105Y-91827739D01*
X164912426Y-91648926D01*
X164906136Y-91640757D01*
X164762806Y-91483240D01*
X164755273Y-91476215D01*
X164588139Y-91344222D01*
X164579552Y-91338517D01*
X164393117Y-91235599D01*
X164383705Y-91231369D01*
X164182959Y-91160280D01*
X164172988Y-91157646D01*
X164101837Y-91144972D01*
X164088540Y-91146432D01*
X164084000Y-91160989D01*
X164084000Y-92203885D01*
X163576000Y-92203885D01*
X163576000Y-91159102D01*
X163572082Y-91145758D01*
X163557806Y-91143771D01*
X163519324Y-91149660D01*
X163509288Y-91152051D01*
X163306868Y-91218212D01*
X163297359Y-91222209D01*
X163108463Y-91320542D01*
X163099738Y-91326036D01*
X162929433Y-91453905D01*
X162921726Y-91460748D01*
X162774590Y-91614717D01*
X162768104Y-91622727D01*
X162663193Y-91776521D01*
X162608282Y-91821524D01*
X162537757Y-91829695D01*
X162474010Y-91798441D01*
X162453313Y-91773957D01*
X162372427Y-91648926D01*
X162366136Y-91640757D01*
X162222806Y-91483240D01*
X162215273Y-91476215D01*
X162048139Y-91344222D01*
X162039552Y-91338517D01*
X161853117Y-91235599D01*
X161843705Y-91231369D01*
X161642959Y-91160280D01*
X161632988Y-91157646D01*
X161561837Y-91144972D01*
X161548540Y-91146432D01*
X161544000Y-91160989D01*
X161544000Y-92203885D01*
X161036000Y-92203885D01*
X161036000Y-91159102D01*
X161032082Y-91145758D01*
X161017806Y-91143771D01*
X160979324Y-91149660D01*
X160969288Y-91152051D01*
X160766868Y-91218212D01*
X160757359Y-91222209D01*
X160568463Y-91320542D01*
X160559738Y-91326036D01*
X160389433Y-91453905D01*
X160381726Y-91460748D01*
X160234590Y-91614717D01*
X160228109Y-91622722D01*
X160123498Y-91776074D01*
X160068587Y-91821076D01*
X159998062Y-91829247D01*
X159934315Y-91797993D01*
X159913618Y-91773509D01*
X159832822Y-91648617D01*
X159832820Y-91648614D01*
X159830014Y-91644277D01*
X159679670Y-91479051D01*
X159675619Y-91475852D01*
X159675615Y-91475848D01*
X159508414Y-91343800D01*
X159508410Y-91343798D01*
X159504359Y-91340598D01*
X159468028Y-91320542D01*
X159452136Y-91311769D01*
X159308789Y-91232638D01*
X159303920Y-91230914D01*
X159303916Y-91230912D01*
X159103087Y-91159795D01*
X159103083Y-91159794D01*
X159098212Y-91158069D01*
X159093119Y-91157162D01*
X159093116Y-91157161D01*
X158883373Y-91119800D01*
X158883367Y-91119799D01*
X158878284Y-91118894D01*
X158804452Y-91117992D01*
X158660081Y-91116228D01*
X158660079Y-91116228D01*
X158654911Y-91116165D01*
X158434091Y-91149955D01*
X158421532Y-91154060D01*
X158350568Y-91156210D01*
X158293294Y-91123389D01*
X156947652Y-89777747D01*
X156940112Y-89769461D01*
X156936000Y-89762982D01*
X156886348Y-89716356D01*
X156883507Y-89713602D01*
X156863770Y-89693865D01*
X156860573Y-89691385D01*
X156851551Y-89683680D01*
X156838116Y-89671064D01*
X156819321Y-89653414D01*
X156812375Y-89649595D01*
X156812372Y-89649593D01*
X156801566Y-89643652D01*
X156785047Y-89632801D01*
X156784583Y-89632441D01*
X156769041Y-89620386D01*
X156761772Y-89617241D01*
X156761768Y-89617238D01*
X156728463Y-89602826D01*
X156717813Y-89597609D01*
X156679060Y-89576305D01*
X156659437Y-89571267D01*
X156640734Y-89564863D01*
X156629420Y-89559967D01*
X156629419Y-89559967D01*
X156622145Y-89556819D01*
X156614322Y-89555580D01*
X156614312Y-89555577D01*
X156578476Y-89549901D01*
X156566856Y-89547495D01*
X156531711Y-89538472D01*
X156531710Y-89538472D01*
X156524030Y-89536500D01*
X156503776Y-89536500D01*
X156484065Y-89534949D01*
X156471886Y-89533020D01*
X156464057Y-89531780D01*
X156434786Y-89534547D01*
X156420039Y-89535941D01*
X156408181Y-89536500D01*
X123776767Y-89536500D01*
X123765584Y-89535973D01*
X123758091Y-89534298D01*
X123750165Y-89534547D01*
X123750164Y-89534547D01*
X123690014Y-89536438D01*
X123686055Y-89536500D01*
X123658144Y-89536500D01*
X123654210Y-89536997D01*
X123654209Y-89536997D01*
X123654144Y-89537005D01*
X123642307Y-89537938D01*
X123610490Y-89538938D01*
X123606029Y-89539078D01*
X123598110Y-89539327D01*
X123580454Y-89544456D01*
X123578658Y-89544978D01*
X123559306Y-89548986D01*
X123552235Y-89549880D01*
X123539203Y-89551526D01*
X123531834Y-89554443D01*
X123531832Y-89554444D01*
X123498097Y-89567800D01*
X123486869Y-89571645D01*
X123444407Y-89583982D01*
X123437585Y-89588016D01*
X123437579Y-89588019D01*
X123426968Y-89594294D01*
X123409218Y-89602990D01*
X123397756Y-89607528D01*
X123397751Y-89607531D01*
X123390383Y-89610448D01*
X123372970Y-89623099D01*
X123354625Y-89636427D01*
X123344707Y-89642943D01*
X123333463Y-89649593D01*
X123306637Y-89665458D01*
X123292313Y-89679782D01*
X123277281Y-89692621D01*
X123260893Y-89704528D01*
X123232712Y-89738593D01*
X123224722Y-89747373D01*
X123180348Y-89791747D01*
X123142501Y-89817759D01*
X122993281Y-89884195D01*
X122993274Y-89884199D01*
X122987248Y-89886882D01*
X122832747Y-89999134D01*
X122704960Y-90141056D01*
X122609473Y-90306444D01*
X122550458Y-90488072D01*
X122549768Y-90494633D01*
X122549768Y-90494635D01*
X122532790Y-90656171D01*
X122505777Y-90721827D01*
X122447555Y-90762457D01*
X122407480Y-90769000D01*
X112384267Y-90769000D01*
X112373084Y-90768473D01*
X112365591Y-90766798D01*
X112357665Y-90767047D01*
X112357664Y-90767047D01*
X112297514Y-90768938D01*
X112293555Y-90769000D01*
X112265644Y-90769000D01*
X112261710Y-90769497D01*
X112261709Y-90769497D01*
X112261644Y-90769505D01*
X112249807Y-90770438D01*
X112217990Y-90771438D01*
X112213529Y-90771578D01*
X112205610Y-90771827D01*
X112187954Y-90776956D01*
X112186158Y-90777478D01*
X112166806Y-90781486D01*
X112159735Y-90782380D01*
X112146703Y-90784026D01*
X112139334Y-90786943D01*
X112139332Y-90786944D01*
X112105597Y-90800300D01*
X112094369Y-90804145D01*
X112051907Y-90816482D01*
X112045085Y-90820516D01*
X112045079Y-90820519D01*
X112034468Y-90826794D01*
X112016718Y-90835490D01*
X112005256Y-90840028D01*
X112005251Y-90840031D01*
X111997883Y-90842948D01*
X111991468Y-90847609D01*
X111962125Y-90868927D01*
X111952207Y-90875443D01*
X111935256Y-90885468D01*
X111914137Y-90897958D01*
X111899813Y-90912282D01*
X111884781Y-90925121D01*
X111868393Y-90937028D01*
X111852464Y-90956283D01*
X111840212Y-90971093D01*
X111832222Y-90979873D01*
X109589747Y-93222348D01*
X109581461Y-93229888D01*
X109574982Y-93234000D01*
X109569557Y-93239777D01*
X109528357Y-93283651D01*
X109525602Y-93286493D01*
X109505865Y-93306230D01*
X109503385Y-93309427D01*
X109495682Y-93318447D01*
X109465414Y-93350679D01*
X109461595Y-93357625D01*
X109461593Y-93357628D01*
X109455652Y-93368434D01*
X109444801Y-93384953D01*
X109432386Y-93400959D01*
X109429241Y-93408228D01*
X109429238Y-93408232D01*
X109414826Y-93441537D01*
X109409609Y-93452187D01*
X109388305Y-93490940D01*
X109386334Y-93498615D01*
X109386334Y-93498616D01*
X109383267Y-93510562D01*
X109376863Y-93529266D01*
X109368819Y-93547855D01*
X109367580Y-93555678D01*
X109367577Y-93555688D01*
X109361901Y-93591524D01*
X109359495Y-93603144D01*
X109351264Y-93635203D01*
X109348500Y-93645970D01*
X109348500Y-93666224D01*
X109346949Y-93685934D01*
X109343780Y-93705943D01*
X109344526Y-93713835D01*
X109347941Y-93749961D01*
X109348500Y-93761819D01*
X109348500Y-101028233D01*
X109347973Y-101039416D01*
X109346298Y-101046909D01*
X109346547Y-101054835D01*
X109346547Y-101054836D01*
X109348438Y-101114986D01*
X109348500Y-101118945D01*
X109348500Y-101146856D01*
X109348997Y-101150790D01*
X109348997Y-101150791D01*
X109349005Y-101150856D01*
X109349938Y-101162693D01*
X109351327Y-101206889D01*
X109356383Y-101224292D01*
X109356978Y-101226339D01*
X109360987Y-101245700D01*
X109363526Y-101265797D01*
X109366445Y-101273168D01*
X109366445Y-101273170D01*
X109379804Y-101306912D01*
X109383649Y-101318142D01*
X109395982Y-101360593D01*
X109400015Y-101367412D01*
X109400017Y-101367417D01*
X109406293Y-101378028D01*
X109414988Y-101395776D01*
X109422448Y-101414617D01*
X109427110Y-101421033D01*
X109427110Y-101421034D01*
X109448436Y-101450387D01*
X109454952Y-101460307D01*
X109477458Y-101498362D01*
X109491779Y-101512683D01*
X109504619Y-101527716D01*
X109516528Y-101544107D01*
X109531042Y-101556114D01*
X109550605Y-101572298D01*
X109559384Y-101580288D01*
X110409778Y-102430682D01*
X110443804Y-102492994D01*
X110442100Y-102553448D01*
X110420989Y-102629570D01*
X110420441Y-102634700D01*
X110420440Y-102634704D01*
X110413953Y-102695405D01*
X110397251Y-102851695D01*
X110397548Y-102856848D01*
X110397548Y-102856851D01*
X110407087Y-103022294D01*
X110410110Y-103074715D01*
X110411247Y-103079761D01*
X110411248Y-103079767D01*
X110430011Y-103163023D01*
X110459222Y-103292639D01*
X110543266Y-103499616D01*
X110659987Y-103690088D01*
X110806250Y-103858938D01*
X110978126Y-104001632D01*
X111171000Y-104114338D01*
X111379692Y-104194030D01*
X111384760Y-104195061D01*
X111384763Y-104195062D01*
X111492017Y-104216883D01*
X111598597Y-104238567D01*
X111603772Y-104238757D01*
X111603774Y-104238757D01*
X111816673Y-104246564D01*
X111816677Y-104246564D01*
X111821837Y-104246753D01*
X111826957Y-104246097D01*
X111826959Y-104246097D01*
X112038288Y-104219025D01*
X112038289Y-104219025D01*
X112043416Y-104218368D01*
X112048366Y-104216883D01*
X112252429Y-104155661D01*
X112252434Y-104155659D01*
X112257384Y-104154174D01*
X112457994Y-104055896D01*
X112639860Y-103926173D01*
X112798096Y-103768489D01*
X112811891Y-103749292D01*
X112925435Y-103591277D01*
X112928453Y-103587077D01*
X112935867Y-103572077D01*
X113025136Y-103391453D01*
X113025137Y-103391451D01*
X113027430Y-103386811D01*
X113059145Y-103282425D01*
X113079781Y-103214505D01*
X113118722Y-103155141D01*
X113183576Y-103126254D01*
X113253752Y-103137015D01*
X113289434Y-103162039D01*
X113301779Y-103174384D01*
X113314619Y-103189417D01*
X113326528Y-103205808D01*
X113332634Y-103210859D01*
X113360605Y-103233999D01*
X113369384Y-103241989D01*
X115829799Y-105702405D01*
X115863825Y-105764717D01*
X115858760Y-105835533D01*
X115816213Y-105892368D01*
X115749693Y-105917179D01*
X115740704Y-105917500D01*
X108584500Y-105917500D01*
X108516379Y-105897498D01*
X108469886Y-105843842D01*
X108458500Y-105791500D01*
X108458500Y-89280500D01*
X108478502Y-89212379D01*
X108532158Y-89165886D01*
X108584500Y-89154500D01*
X167005500Y-89154500D01*
X167073621Y-89174502D01*
G37*
G04 #@! TD.AperFunction*
G04 #@! TA.AperFunction,Conductor*
G36*
X122689527Y-98443502D02*
G01*
X122710501Y-98460405D01*
X123598146Y-99348051D01*
X124464348Y-100214253D01*
X124471888Y-100222539D01*
X124476000Y-100229018D01*
X124481777Y-100234443D01*
X124525651Y-100275643D01*
X124528493Y-100278398D01*
X124548230Y-100298135D01*
X124551427Y-100300615D01*
X124560447Y-100308318D01*
X124592679Y-100338586D01*
X124599625Y-100342405D01*
X124599628Y-100342407D01*
X124610434Y-100348348D01*
X124626953Y-100359199D01*
X124642959Y-100371614D01*
X124650228Y-100374759D01*
X124650232Y-100374762D01*
X124683537Y-100389174D01*
X124694187Y-100394391D01*
X124732940Y-100415695D01*
X124740615Y-100417666D01*
X124740616Y-100417666D01*
X124752562Y-100420733D01*
X124771267Y-100427137D01*
X124789855Y-100435181D01*
X124797678Y-100436420D01*
X124797688Y-100436423D01*
X124833524Y-100442099D01*
X124845144Y-100444505D01*
X124880289Y-100453528D01*
X124887970Y-100455500D01*
X124908224Y-100455500D01*
X124927934Y-100457051D01*
X124947943Y-100460220D01*
X124955835Y-100459474D01*
X124991961Y-100456059D01*
X125003819Y-100455500D01*
X131008406Y-100455500D01*
X131076527Y-100475502D01*
X131123020Y-100529158D01*
X131133124Y-100599432D01*
X131103630Y-100664012D01*
X131097503Y-100670593D01*
X130463868Y-101304227D01*
X129843500Y-101924595D01*
X129781188Y-101958621D01*
X129754405Y-101961500D01*
X129698513Y-101961500D01*
X129692061Y-101962872D01*
X129692056Y-101962872D01*
X129605112Y-101981353D01*
X129511712Y-102001206D01*
X129505682Y-102003891D01*
X129505681Y-102003891D01*
X129343278Y-102076197D01*
X129343276Y-102076198D01*
X129337248Y-102078882D01*
X129182747Y-102191134D01*
X129178326Y-102196044D01*
X129178325Y-102196045D01*
X129104850Y-102277648D01*
X129054960Y-102333056D01*
X129051659Y-102338774D01*
X128987027Y-102450720D01*
X128959473Y-102498444D01*
X128900458Y-102680072D01*
X128899768Y-102686633D01*
X128899768Y-102686635D01*
X128884800Y-102829050D01*
X128880496Y-102870000D01*
X128881186Y-102876565D01*
X128896503Y-103022294D01*
X128900458Y-103059928D01*
X128959473Y-103241556D01*
X128962776Y-103247278D01*
X128962777Y-103247279D01*
X129037094Y-103375999D01*
X129053832Y-103444994D01*
X129030612Y-103512086D01*
X128974805Y-103555973D01*
X128927975Y-103564999D01*
X123563093Y-103564999D01*
X123494972Y-103544997D01*
X123473998Y-103528094D01*
X120731218Y-100785313D01*
X120697192Y-100723001D01*
X120699755Y-100659589D01*
X120706308Y-100638023D01*
X120712370Y-100618069D01*
X120741529Y-100396590D01*
X120742853Y-100342407D01*
X120743074Y-100333365D01*
X120743074Y-100333361D01*
X120743156Y-100330000D01*
X120724852Y-100107361D01*
X120670431Y-99890702D01*
X120581354Y-99685840D01*
X120537466Y-99617999D01*
X120462822Y-99502617D01*
X120462820Y-99502614D01*
X120460014Y-99498277D01*
X120451398Y-99488808D01*
X120312798Y-99336488D01*
X120281746Y-99272642D01*
X120290141Y-99202143D01*
X120335317Y-99147375D01*
X120361761Y-99133706D01*
X120468297Y-99093767D01*
X120476705Y-99090615D01*
X120593261Y-99003261D01*
X120680615Y-98886705D01*
X120731745Y-98750316D01*
X120738500Y-98688134D01*
X120738500Y-98549500D01*
X120758502Y-98481379D01*
X120812158Y-98434886D01*
X120864500Y-98423500D01*
X122621406Y-98423500D01*
X122689527Y-98443502D01*
G37*
G04 #@! TD.AperFunction*
G04 #@! TA.AperFunction,Conductor*
G36*
X124294959Y-92487399D02*
G01*
X124351795Y-92529946D01*
X124376718Y-92598201D01*
X124380309Y-92660477D01*
X124381745Y-92670697D01*
X124428565Y-92878446D01*
X124431645Y-92888275D01*
X124511770Y-93085603D01*
X124516413Y-93094794D01*
X124627694Y-93276388D01*
X124633777Y-93284699D01*
X124773213Y-93445667D01*
X124780577Y-93452879D01*
X124785522Y-93456985D01*
X124825156Y-93515889D01*
X124826653Y-93586870D01*
X124789537Y-93647392D01*
X124749264Y-93671910D01*
X124641705Y-93712232D01*
X124641704Y-93712233D01*
X124633295Y-93715385D01*
X124516739Y-93802739D01*
X124429385Y-93919295D01*
X124378255Y-94055684D01*
X124371500Y-94117866D01*
X124371500Y-95914134D01*
X124378255Y-95976316D01*
X124429385Y-96112705D01*
X124516739Y-96229261D01*
X124633295Y-96316615D01*
X124769684Y-96367745D01*
X124831866Y-96374500D01*
X126628134Y-96374500D01*
X126690316Y-96367745D01*
X126826705Y-96316615D01*
X126943261Y-96229261D01*
X127030615Y-96112705D01*
X127061339Y-96030750D01*
X127074598Y-95995382D01*
X127117240Y-95938618D01*
X127183802Y-95913918D01*
X127253150Y-95929126D01*
X127287817Y-95957114D01*
X127316250Y-95989938D01*
X127488126Y-96132632D01*
X127681000Y-96245338D01*
X127889692Y-96325030D01*
X127894760Y-96326061D01*
X127894763Y-96326062D01*
X127973436Y-96342068D01*
X128108597Y-96369567D01*
X128113772Y-96369757D01*
X128113774Y-96369757D01*
X128326673Y-96377564D01*
X128326677Y-96377564D01*
X128331837Y-96377753D01*
X128336957Y-96377097D01*
X128336959Y-96377097D01*
X128548288Y-96350025D01*
X128548289Y-96350025D01*
X128553416Y-96349368D01*
X128569985Y-96344397D01*
X128762429Y-96286661D01*
X128762434Y-96286659D01*
X128767384Y-96285174D01*
X128967994Y-96186896D01*
X129149860Y-96057173D01*
X129176376Y-96030750D01*
X129293616Y-95913918D01*
X129308096Y-95899489D01*
X129315786Y-95888788D01*
X129438453Y-95718077D01*
X129439776Y-95719028D01*
X129486645Y-95675857D01*
X129556580Y-95663625D01*
X129622026Y-95691144D01*
X129649875Y-95722994D01*
X129709987Y-95821088D01*
X129835658Y-95966166D01*
X129865140Y-96030750D01*
X129855026Y-96101022D01*
X129819200Y-96146997D01*
X129765053Y-96190377D01*
X129756584Y-96202500D01*
X129762980Y-96213770D01*
X130967188Y-97417978D01*
X130981132Y-97425592D01*
X130982965Y-97425461D01*
X130989580Y-97421210D01*
X132196604Y-96214186D01*
X132203795Y-96201017D01*
X132196473Y-96190780D01*
X132149233Y-96152115D01*
X132142261Y-96147160D01*
X131930079Y-96017135D01*
X131882448Y-95964487D01*
X131870841Y-95894446D01*
X131893591Y-95836176D01*
X131978453Y-95718077D01*
X131979776Y-95719028D01*
X132026645Y-95675857D01*
X132096580Y-95663625D01*
X132162026Y-95691144D01*
X132189875Y-95722994D01*
X132249987Y-95821088D01*
X132396250Y-95989938D01*
X132568126Y-96132632D01*
X132761000Y-96245338D01*
X132969692Y-96325030D01*
X132974760Y-96326061D01*
X132974763Y-96326062D01*
X133053436Y-96342068D01*
X133188597Y-96369567D01*
X133193772Y-96369757D01*
X133193774Y-96369757D01*
X133283850Y-96373060D01*
X133351192Y-96395545D01*
X133395688Y-96450868D01*
X133403210Y-96521465D01*
X133381555Y-96572501D01*
X133271508Y-96725647D01*
X133271502Y-96725657D01*
X133269002Y-96729136D01*
X133140857Y-96971161D01*
X133139384Y-96975187D01*
X133139381Y-96975193D01*
X133098194Y-97087741D01*
X133055999Y-97144839D01*
X132989634Y-97170061D01*
X132920168Y-97155399D01*
X132869656Y-97105508D01*
X132861095Y-97086500D01*
X132828588Y-96994705D01*
X132825191Y-96986854D01*
X132703550Y-96751178D01*
X132699122Y-96743866D01*
X132580031Y-96574417D01*
X132569509Y-96566037D01*
X132556121Y-96573089D01*
X131069095Y-98060115D01*
X131006783Y-98094141D01*
X130935968Y-98089076D01*
X130890905Y-98060115D01*
X129403814Y-96573024D01*
X129391804Y-96566466D01*
X129380064Y-96575434D01*
X129271935Y-96725911D01*
X129267418Y-96733196D01*
X129143325Y-96967567D01*
X129139839Y-96975395D01*
X129048700Y-97224446D01*
X129046311Y-97232670D01*
X128989812Y-97491795D01*
X128988563Y-97500250D01*
X128967754Y-97764653D01*
X128967665Y-97773204D01*
X128982932Y-98037969D01*
X128984005Y-98046470D01*
X129035065Y-98306722D01*
X129037276Y-98314974D01*
X129123184Y-98565894D01*
X129126499Y-98573779D01*
X129245664Y-98810713D01*
X129250020Y-98818079D01*
X129368958Y-98991133D01*
X129391058Y-99058602D01*
X129373173Y-99127309D01*
X129320981Y-99175439D01*
X129265118Y-99188500D01*
X125282594Y-99188500D01*
X125214473Y-99168498D01*
X125193499Y-99151595D01*
X124320731Y-98278826D01*
X123439652Y-97397747D01*
X123432112Y-97389461D01*
X123428000Y-97382982D01*
X123378348Y-97336356D01*
X123375507Y-97333602D01*
X123355770Y-97313865D01*
X123352573Y-97311385D01*
X123343551Y-97303680D01*
X123326219Y-97287404D01*
X123311321Y-97273414D01*
X123304375Y-97269595D01*
X123304372Y-97269593D01*
X123293566Y-97263652D01*
X123277047Y-97252801D01*
X123271646Y-97248612D01*
X123261041Y-97240386D01*
X123253772Y-97237241D01*
X123253768Y-97237238D01*
X123220463Y-97222826D01*
X123209813Y-97217609D01*
X123171060Y-97196305D01*
X123151437Y-97191267D01*
X123132734Y-97184863D01*
X123121420Y-97179967D01*
X123121419Y-97179967D01*
X123114145Y-97176819D01*
X123106322Y-97175580D01*
X123106312Y-97175577D01*
X123070476Y-97169901D01*
X123058856Y-97167495D01*
X123023711Y-97158472D01*
X123023710Y-97158472D01*
X123016030Y-97156500D01*
X122995776Y-97156500D01*
X122976065Y-97154949D01*
X122974260Y-97154663D01*
X122956057Y-97151780D01*
X122917773Y-97155399D01*
X122912039Y-97155941D01*
X122900181Y-97156500D01*
X120864500Y-97156500D01*
X120796379Y-97136498D01*
X120749886Y-97082842D01*
X120738500Y-97030500D01*
X120738500Y-96891866D01*
X120731745Y-96829684D01*
X120680615Y-96693295D01*
X120593261Y-96576739D01*
X120476705Y-96489385D01*
X120340316Y-96438255D01*
X120278134Y-96431500D01*
X119588594Y-96431500D01*
X119520473Y-96411498D01*
X119473980Y-96357842D01*
X119463876Y-96287568D01*
X119493370Y-96222988D01*
X119499499Y-96216405D01*
X120303499Y-95412405D01*
X120365811Y-95378379D01*
X120392594Y-95375500D01*
X120961521Y-95375500D01*
X120972704Y-95376027D01*
X120980197Y-95377702D01*
X120988123Y-95377453D01*
X120988124Y-95377453D01*
X121048274Y-95375562D01*
X121052233Y-95375500D01*
X121080144Y-95375500D01*
X121084079Y-95375003D01*
X121084144Y-95374995D01*
X121095981Y-95374062D01*
X121128239Y-95373048D01*
X121132258Y-95372922D01*
X121140177Y-95372673D01*
X121159631Y-95367021D01*
X121178988Y-95363013D01*
X121191218Y-95361468D01*
X121191219Y-95361468D01*
X121199085Y-95360474D01*
X121206456Y-95357555D01*
X121206458Y-95357555D01*
X121240200Y-95344196D01*
X121251430Y-95340351D01*
X121286271Y-95330229D01*
X121286272Y-95330229D01*
X121293881Y-95328018D01*
X121300700Y-95323985D01*
X121300705Y-95323983D01*
X121311316Y-95317707D01*
X121329064Y-95309012D01*
X121347905Y-95301552D01*
X121383675Y-95275564D01*
X121393595Y-95269048D01*
X121424823Y-95250580D01*
X121424826Y-95250578D01*
X121431650Y-95246542D01*
X121445971Y-95232221D01*
X121461005Y-95219380D01*
X121470982Y-95212131D01*
X121477395Y-95207472D01*
X121505586Y-95173395D01*
X121513576Y-95164616D01*
X123122504Y-93555688D01*
X124161834Y-92516359D01*
X124224144Y-92482334D01*
X124294959Y-92487399D01*
G37*
G04 #@! TD.AperFunction*
M02*
