%FSLAX45Y45*%
G04 Gerber Fmt 4.5, Leading zero omitted, Abs format (unit mm)*
G04 Created by KiCad (PCBNEW (6.0.6)) date 2022-08-10 20:15:34*
%MOMM*%
%LPD*%
G01*
G04 APERTURE LIST*
%TA.AperFunction,Profile*%
%ADD10C,0.100000*%
%TD*%
%ADD11C,0.200000*%
G04 APERTURE END LIST*
D10*
X16764000Y-10642600D02*
X10795000Y-10642600D01*
X10795000Y-10642600D02*
X10795000Y-8864600D01*
X10795000Y-8864600D02*
X16764000Y-8864600D01*
X16764000Y-8864600D02*
X16764000Y-10642600D01*
D11*
X11047619Y-10958076D02*
X11047619Y-10758076D01*
X11095238Y-10758076D01*
X11123810Y-10767600D01*
X11142857Y-10786648D01*
X11152381Y-10805695D01*
X11161905Y-10843790D01*
X11161905Y-10872362D01*
X11152381Y-10910457D01*
X11142857Y-10929505D01*
X11123810Y-10948552D01*
X11095238Y-10958076D01*
X11047619Y-10958076D01*
X11247619Y-10958076D02*
X11247619Y-10824743D01*
X11247619Y-10862838D02*
X11257143Y-10843790D01*
X11266667Y-10834267D01*
X11285714Y-10824743D01*
X11304762Y-10824743D01*
X11371428Y-10958076D02*
X11371428Y-10824743D01*
X11371428Y-10758076D02*
X11361905Y-10767600D01*
X11371428Y-10777124D01*
X11380952Y-10767600D01*
X11371428Y-10758076D01*
X11371428Y-10777124D01*
X11495238Y-10958076D02*
X11476190Y-10948552D01*
X11466667Y-10929505D01*
X11466667Y-10758076D01*
X11600000Y-10958076D02*
X11580952Y-10948552D01*
X11571428Y-10929505D01*
X11571428Y-10758076D01*
X11828571Y-10958076D02*
X11828571Y-10758076D01*
X11895238Y-10900933D01*
X11961905Y-10758076D01*
X11961905Y-10958076D01*
X12142857Y-10958076D02*
X12142857Y-10853314D01*
X12133333Y-10834267D01*
X12114286Y-10824743D01*
X12076190Y-10824743D01*
X12057143Y-10834267D01*
X12142857Y-10948552D02*
X12123809Y-10958076D01*
X12076190Y-10958076D01*
X12057143Y-10948552D01*
X12047619Y-10929505D01*
X12047619Y-10910457D01*
X12057143Y-10891410D01*
X12076190Y-10881886D01*
X12123809Y-10881886D01*
X12142857Y-10872362D01*
X12238095Y-10824743D02*
X12238095Y-11024743D01*
X12238095Y-10834267D02*
X12257143Y-10824743D01*
X12295238Y-10824743D01*
X12314286Y-10834267D01*
X12323809Y-10843790D01*
X12333333Y-10862838D01*
X12333333Y-10919981D01*
X12323809Y-10939029D01*
X12314286Y-10948552D01*
X12295238Y-10958076D01*
X12257143Y-10958076D01*
X12238095Y-10948552D01*
X12419048Y-10939029D02*
X12428571Y-10948552D01*
X12419048Y-10958076D01*
X12409524Y-10948552D01*
X12419048Y-10939029D01*
X12419048Y-10958076D01*
X12419048Y-10834267D02*
X12428571Y-10843790D01*
X12419048Y-10853314D01*
X12409524Y-10843790D01*
X12419048Y-10834267D01*
X12419048Y-10853314D01*
M02*
