%FSLAX45Y45*%
G04 Gerber Fmt 4.5, Leading zero omitted, Abs format (unit mm)*
G04 Created by KiCad (PCBNEW (6.0.6)) date 2022-08-10 20:15:34*
%MOMM*%
%LPD*%
G01*
G04 APERTURE LIST*
%TA.AperFunction,Profile*%
%ADD10C,0.100000*%
%TD*%
%ADD11C,0.200000*%
%ADD12C,0.040000*%
%ADD13C,0.100000*%
G04 APERTURE END LIST*
D10*
X16764000Y-10642600D02*
X10795000Y-10642600D01*
X10795000Y-10642600D02*
X10795000Y-8864600D01*
X10795000Y-8864600D02*
X16764000Y-8864600D01*
X16764000Y-8864600D02*
X16764000Y-10642600D01*
D11*
D12*
X10876600Y-8946200D02*
X10916600Y-8986200D01*
X10916600Y-8946200D02*
X10876600Y-8986200D01*
X10902000Y-10495600D02*
X10942000Y-10535600D01*
X10942000Y-10495600D02*
X10902000Y-10535600D01*
X12121200Y-9200200D02*
X12161200Y-9240200D01*
X12161200Y-9200200D02*
X12121200Y-9240200D01*
X12222800Y-9632000D02*
X12262800Y-9672000D01*
X12262800Y-9632000D02*
X12222800Y-9672000D01*
X12222800Y-10114600D02*
X12262800Y-10154600D01*
X12262800Y-10114600D02*
X12222800Y-10154600D01*
X12324400Y-9047800D02*
X12364400Y-9087800D01*
X12364400Y-9047800D02*
X12324400Y-9087800D01*
X12959400Y-10267000D02*
X12999400Y-10307000D01*
X12999400Y-10267000D02*
X12959400Y-10307000D01*
X13391200Y-10267000D02*
X13431200Y-10307000D01*
X13431200Y-10267000D02*
X13391200Y-10307000D01*
X13797600Y-10423150D02*
X13837600Y-10463150D01*
X13837600Y-10423150D02*
X13797600Y-10463150D01*
X13873800Y-10261950D02*
X13913800Y-10301950D01*
X13913800Y-10261950D02*
X13873800Y-10301950D01*
X14127800Y-10470200D02*
X14167800Y-10510200D01*
X14167800Y-10470200D02*
X14127800Y-10510200D01*
X16591600Y-8997000D02*
X16631600Y-9037000D01*
X16631600Y-8997000D02*
X16591600Y-9037000D01*
X16591600Y-10470200D02*
X16631600Y-10510200D01*
X16631600Y-10470200D02*
X16591600Y-10510200D01*
D13*
X11226000Y-9780500D02*
G75*
G03*
X11226000Y-9780500I-50000J0D01*
G01*
X11226000Y-10034500D02*
G75*
G03*
X11226000Y-10034500I-50000J0D01*
G01*
X11226000Y-10288500D02*
G75*
G03*
X11226000Y-10288500I-50000J0D01*
G01*
X11607000Y-9780500D02*
G75*
G03*
X11607000Y-9780500I-50000J0D01*
G01*
X11607000Y-10034500D02*
G75*
G03*
X11607000Y-10034500I-50000J0D01*
G01*
X11607000Y-10288500D02*
G75*
G03*
X11607000Y-10288500I-50000J0D01*
G01*
X11988000Y-9779000D02*
G75*
G03*
X11988000Y-9779000I-50000J0D01*
G01*
X11988000Y-10033000D02*
G75*
G03*
X11988000Y-10033000I-50000J0D01*
G01*
X11988000Y-10287000D02*
G75*
G03*
X11988000Y-10287000I-50000J0D01*
G01*
X12623000Y-9247600D02*
G75*
G03*
X12623000Y-9247600I-50000J0D01*
G01*
X12623000Y-9501600D02*
G75*
G03*
X12623000Y-9501600I-50000J0D01*
G01*
X12877000Y-9247600D02*
G75*
G03*
X12877000Y-9247600I-50000J0D01*
G01*
X12877000Y-9501600D02*
G75*
G03*
X12877000Y-9501600I-50000J0D01*
G01*
X13131000Y-9247600D02*
G75*
G03*
X13131000Y-9247600I-50000J0D01*
G01*
X13131000Y-9501600D02*
G75*
G03*
X13131000Y-9501600I-50000J0D01*
G01*
X13385000Y-9247600D02*
G75*
G03*
X13385000Y-9247600I-50000J0D01*
G01*
X13385000Y-9501600D02*
G75*
G03*
X13385000Y-9501600I-50000J0D01*
G01*
X13639000Y-9247600D02*
G75*
G03*
X13639000Y-9247600I-50000J0D01*
G01*
X13639000Y-9501600D02*
G75*
G03*
X13639000Y-9501600I-50000J0D01*
G01*
X13893000Y-9247600D02*
G75*
G03*
X13893000Y-9247600I-50000J0D01*
G01*
X13893000Y-9501600D02*
G75*
G03*
X13893000Y-9501600I-50000J0D01*
G01*
X14147000Y-9247600D02*
G75*
G03*
X14147000Y-9247600I-50000J0D01*
G01*
X14147000Y-9501600D02*
G75*
G03*
X14147000Y-9501600I-50000J0D01*
G01*
X14401000Y-9247600D02*
G75*
G03*
X14401000Y-9247600I-50000J0D01*
G01*
X14401000Y-9501600D02*
G75*
G03*
X14401000Y-9501600I-50000J0D01*
G01*
X14655000Y-9247600D02*
G75*
G03*
X14655000Y-9247600I-50000J0D01*
G01*
X14655000Y-9501600D02*
G75*
G03*
X14655000Y-9501600I-50000J0D01*
G01*
X14909000Y-9247600D02*
G75*
G03*
X14909000Y-9247600I-50000J0D01*
G01*
X14909000Y-9501600D02*
G75*
G03*
X14909000Y-9501600I-50000J0D01*
G01*
X15163000Y-9247600D02*
G75*
G03*
X15163000Y-9247600I-50000J0D01*
G01*
X15163000Y-9501600D02*
G75*
G03*
X15163000Y-9501600I-50000J0D01*
G01*
X15417000Y-9247600D02*
G75*
G03*
X15417000Y-9247600I-50000J0D01*
G01*
X15417000Y-9501600D02*
G75*
G03*
X15417000Y-9501600I-50000J0D01*
G01*
X15671000Y-9247600D02*
G75*
G03*
X15671000Y-9247600I-50000J0D01*
G01*
X15671000Y-9501600D02*
G75*
G03*
X15671000Y-9501600I-50000J0D01*
G01*
X15925000Y-9247600D02*
G75*
G03*
X15925000Y-9247600I-50000J0D01*
G01*
X15925000Y-9501600D02*
G75*
G03*
X15925000Y-9501600I-50000J0D01*
G01*
X16179000Y-9247600D02*
G75*
G03*
X16179000Y-9247600I-50000J0D01*
G01*
X16179000Y-9501600D02*
G75*
G03*
X16179000Y-9501600I-50000J0D01*
G01*
X16433000Y-9247600D02*
G75*
G03*
X16433000Y-9247600I-50000J0D01*
G01*
X16433000Y-9501600D02*
G75*
G03*
X16433000Y-9501600I-50000J0D01*
G01*
D11*
X13098000Y-9679000D02*
X13098000Y-9879000D01*
X12998000Y-9779000D02*
X13198000Y-9779000D01*
X13498000Y-9679000D02*
X13498000Y-9879000D01*
X13398000Y-9779000D02*
X13598000Y-9779000D01*
X13898000Y-9679000D02*
X13898000Y-9879000D01*
X13798000Y-9779000D02*
X13998000Y-9779000D01*
X14548000Y-9679000D02*
X14548000Y-9879000D01*
X14448000Y-9779000D02*
X14648000Y-9779000D01*
X14948000Y-9679000D02*
X14948000Y-9879000D01*
X14848000Y-9779000D02*
X15048000Y-9779000D01*
X15348000Y-9679000D02*
X15348000Y-9879000D01*
X15248000Y-9779000D02*
X15448000Y-9779000D01*
X15748000Y-9679000D02*
X15748000Y-9879000D01*
X15648000Y-9779000D02*
X15848000Y-9779000D01*
X11047619Y-10958076D02*
X11047619Y-10758076D01*
X11095238Y-10758076D01*
X11123810Y-10767600D01*
X11142857Y-10786648D01*
X11152381Y-10805695D01*
X11161905Y-10843790D01*
X11161905Y-10872362D01*
X11152381Y-10910457D01*
X11142857Y-10929505D01*
X11123810Y-10948552D01*
X11095238Y-10958076D01*
X11047619Y-10958076D01*
X11247619Y-10958076D02*
X11247619Y-10824743D01*
X11247619Y-10862838D02*
X11257143Y-10843790D01*
X11266667Y-10834267D01*
X11285714Y-10824743D01*
X11304762Y-10824743D01*
X11371428Y-10958076D02*
X11371428Y-10824743D01*
X11371428Y-10758076D02*
X11361905Y-10767600D01*
X11371428Y-10777124D01*
X11380952Y-10767600D01*
X11371428Y-10758076D01*
X11371428Y-10777124D01*
X11495238Y-10958076D02*
X11476190Y-10948552D01*
X11466667Y-10929505D01*
X11466667Y-10758076D01*
X11600000Y-10958076D02*
X11580952Y-10948552D01*
X11571428Y-10929505D01*
X11571428Y-10758076D01*
X11828571Y-10958076D02*
X11828571Y-10758076D01*
X11895238Y-10900933D01*
X11961905Y-10758076D01*
X11961905Y-10958076D01*
X12142857Y-10958076D02*
X12142857Y-10853314D01*
X12133333Y-10834267D01*
X12114286Y-10824743D01*
X12076190Y-10824743D01*
X12057143Y-10834267D01*
X12142857Y-10948552D02*
X12123809Y-10958076D01*
X12076190Y-10958076D01*
X12057143Y-10948552D01*
X12047619Y-10929505D01*
X12047619Y-10910457D01*
X12057143Y-10891410D01*
X12076190Y-10881886D01*
X12123809Y-10881886D01*
X12142857Y-10872362D01*
X12238095Y-10824743D02*
X12238095Y-11024743D01*
X12238095Y-10834267D02*
X12257143Y-10824743D01*
X12295238Y-10824743D01*
X12314286Y-10834267D01*
X12323809Y-10843790D01*
X12333333Y-10862838D01*
X12333333Y-10919981D01*
X12323809Y-10939029D01*
X12314286Y-10948552D01*
X12295238Y-10958076D01*
X12257143Y-10958076D01*
X12238095Y-10948552D01*
X12419048Y-10939029D02*
X12428571Y-10948552D01*
X12419048Y-10958076D01*
X12409524Y-10948552D01*
X12419048Y-10939029D01*
X12419048Y-10958076D01*
X12419048Y-10834267D02*
X12428571Y-10843790D01*
X12419048Y-10853314D01*
X12409524Y-10843790D01*
X12419048Y-10834267D01*
X12419048Y-10853314D01*
D12*
X10750000Y-11267600D02*
X10790000Y-11307600D01*
X10790000Y-11267600D02*
X10750000Y-11307600D01*
D11*
X11085714Y-11178076D02*
X11104762Y-11178076D01*
X11123810Y-11187600D01*
X11133333Y-11197124D01*
X11142857Y-11216171D01*
X11152381Y-11254267D01*
X11152381Y-11301886D01*
X11142857Y-11339981D01*
X11133333Y-11359028D01*
X11123810Y-11368552D01*
X11104762Y-11378076D01*
X11085714Y-11378076D01*
X11066667Y-11368552D01*
X11057143Y-11359028D01*
X11047619Y-11339981D01*
X11038095Y-11301886D01*
X11038095Y-11254267D01*
X11047619Y-11216171D01*
X11057143Y-11197124D01*
X11066667Y-11187600D01*
X11085714Y-11178076D01*
X11238095Y-11359028D02*
X11247619Y-11368552D01*
X11238095Y-11378076D01*
X11228571Y-11368552D01*
X11238095Y-11359028D01*
X11238095Y-11378076D01*
X11419048Y-11244743D02*
X11419048Y-11378076D01*
X11371428Y-11168552D02*
X11323809Y-11311409D01*
X11447619Y-11311409D01*
X11561905Y-11178076D02*
X11580952Y-11178076D01*
X11600000Y-11187600D01*
X11609524Y-11197124D01*
X11619048Y-11216171D01*
X11628571Y-11254267D01*
X11628571Y-11301886D01*
X11619048Y-11339981D01*
X11609524Y-11359028D01*
X11600000Y-11368552D01*
X11580952Y-11378076D01*
X11561905Y-11378076D01*
X11542857Y-11368552D01*
X11533333Y-11359028D01*
X11523809Y-11339981D01*
X11514286Y-11301886D01*
X11514286Y-11254267D01*
X11523809Y-11216171D01*
X11533333Y-11197124D01*
X11542857Y-11187600D01*
X11561905Y-11178076D01*
X11752381Y-11178076D02*
X11771428Y-11178076D01*
X11790476Y-11187600D01*
X11800000Y-11197124D01*
X11809524Y-11216171D01*
X11819048Y-11254267D01*
X11819048Y-11301886D01*
X11809524Y-11339981D01*
X11800000Y-11359028D01*
X11790476Y-11368552D01*
X11771428Y-11378076D01*
X11752381Y-11378076D01*
X11733333Y-11368552D01*
X11723809Y-11359028D01*
X11714286Y-11339981D01*
X11704762Y-11301886D01*
X11704762Y-11254267D01*
X11714286Y-11216171D01*
X11723809Y-11197124D01*
X11733333Y-11187600D01*
X11752381Y-11178076D01*
X11904762Y-11378076D02*
X11904762Y-11244743D01*
X11904762Y-11263790D02*
X11914286Y-11254267D01*
X11933333Y-11244743D01*
X11961905Y-11244743D01*
X11980952Y-11254267D01*
X11990476Y-11273314D01*
X11990476Y-11378076D01*
X11990476Y-11273314D02*
X12000000Y-11254267D01*
X12019048Y-11244743D01*
X12047619Y-11244743D01*
X12066667Y-11254267D01*
X12076190Y-11273314D01*
X12076190Y-11378076D01*
X12171428Y-11378076D02*
X12171428Y-11244743D01*
X12171428Y-11263790D02*
X12180952Y-11254267D01*
X12200000Y-11244743D01*
X12228571Y-11244743D01*
X12247619Y-11254267D01*
X12257143Y-11273314D01*
X12257143Y-11378076D01*
X12257143Y-11273314D02*
X12266667Y-11254267D01*
X12285714Y-11244743D01*
X12314286Y-11244743D01*
X12333333Y-11254267D01*
X12342857Y-11273314D01*
X12342857Y-11378076D01*
X12733333Y-11168552D02*
X12561905Y-11425695D01*
X12990476Y-11178076D02*
X13009524Y-11178076D01*
X13028571Y-11187600D01*
X13038095Y-11197124D01*
X13047619Y-11216171D01*
X13057143Y-11254267D01*
X13057143Y-11301886D01*
X13047619Y-11339981D01*
X13038095Y-11359028D01*
X13028571Y-11368552D01*
X13009524Y-11378076D01*
X12990476Y-11378076D01*
X12971428Y-11368552D01*
X12961905Y-11359028D01*
X12952381Y-11339981D01*
X12942857Y-11301886D01*
X12942857Y-11254267D01*
X12952381Y-11216171D01*
X12961905Y-11197124D01*
X12971428Y-11187600D01*
X12990476Y-11178076D01*
X13142857Y-11359028D02*
X13152381Y-11368552D01*
X13142857Y-11378076D01*
X13133333Y-11368552D01*
X13142857Y-11359028D01*
X13142857Y-11378076D01*
X13276190Y-11178076D02*
X13295238Y-11178076D01*
X13314286Y-11187600D01*
X13323809Y-11197124D01*
X13333333Y-11216171D01*
X13342857Y-11254267D01*
X13342857Y-11301886D01*
X13333333Y-11339981D01*
X13323809Y-11359028D01*
X13314286Y-11368552D01*
X13295238Y-11378076D01*
X13276190Y-11378076D01*
X13257143Y-11368552D01*
X13247619Y-11359028D01*
X13238095Y-11339981D01*
X13228571Y-11301886D01*
X13228571Y-11254267D01*
X13238095Y-11216171D01*
X13247619Y-11197124D01*
X13257143Y-11187600D01*
X13276190Y-11178076D01*
X13533333Y-11378076D02*
X13419048Y-11378076D01*
X13476190Y-11378076D02*
X13476190Y-11178076D01*
X13457143Y-11206648D01*
X13438095Y-11225695D01*
X13419048Y-11235219D01*
X13714286Y-11178076D02*
X13619048Y-11178076D01*
X13609524Y-11273314D01*
X13619048Y-11263790D01*
X13638095Y-11254267D01*
X13685714Y-11254267D01*
X13704762Y-11263790D01*
X13714286Y-11273314D01*
X13723809Y-11292362D01*
X13723809Y-11339981D01*
X13714286Y-11359028D01*
X13704762Y-11368552D01*
X13685714Y-11378076D01*
X13638095Y-11378076D01*
X13619048Y-11368552D01*
X13609524Y-11359028D01*
X13790476Y-11178076D02*
X13923809Y-11178076D01*
X13838095Y-11378076D01*
X13990476Y-11178076D02*
X13990476Y-11216171D01*
X14066667Y-11178076D02*
X14066667Y-11216171D01*
X14361905Y-11454267D02*
X14352381Y-11444743D01*
X14333333Y-11416171D01*
X14323809Y-11397124D01*
X14314286Y-11368552D01*
X14304762Y-11320933D01*
X14304762Y-11282838D01*
X14314286Y-11235219D01*
X14323809Y-11206648D01*
X14333333Y-11187600D01*
X14352381Y-11159029D01*
X14361905Y-11149505D01*
X14542857Y-11378076D02*
X14428571Y-11378076D01*
X14485714Y-11378076D02*
X14485714Y-11178076D01*
X14466667Y-11206648D01*
X14447619Y-11225695D01*
X14428571Y-11235219D01*
X14609524Y-11178076D02*
X14733333Y-11178076D01*
X14666667Y-11254267D01*
X14695238Y-11254267D01*
X14714286Y-11263790D01*
X14723809Y-11273314D01*
X14733333Y-11292362D01*
X14733333Y-11339981D01*
X14723809Y-11359028D01*
X14714286Y-11368552D01*
X14695238Y-11378076D01*
X14638095Y-11378076D01*
X14619048Y-11368552D01*
X14609524Y-11359028D01*
X14971428Y-11378076D02*
X14971428Y-11178076D01*
X15057143Y-11378076D02*
X15057143Y-11273314D01*
X15047619Y-11254267D01*
X15028571Y-11244743D01*
X15000000Y-11244743D01*
X14980952Y-11254267D01*
X14971428Y-11263790D01*
X15180952Y-11378076D02*
X15161905Y-11368552D01*
X15152381Y-11359028D01*
X15142857Y-11339981D01*
X15142857Y-11282838D01*
X15152381Y-11263790D01*
X15161905Y-11254267D01*
X15180952Y-11244743D01*
X15209524Y-11244743D01*
X15228571Y-11254267D01*
X15238095Y-11263790D01*
X15247619Y-11282838D01*
X15247619Y-11339981D01*
X15238095Y-11359028D01*
X15228571Y-11368552D01*
X15209524Y-11378076D01*
X15180952Y-11378076D01*
X15361905Y-11378076D02*
X15342857Y-11368552D01*
X15333333Y-11349505D01*
X15333333Y-11178076D01*
X15514286Y-11368552D02*
X15495238Y-11378076D01*
X15457143Y-11378076D01*
X15438095Y-11368552D01*
X15428571Y-11349505D01*
X15428571Y-11273314D01*
X15438095Y-11254267D01*
X15457143Y-11244743D01*
X15495238Y-11244743D01*
X15514286Y-11254267D01*
X15523809Y-11273314D01*
X15523809Y-11292362D01*
X15428571Y-11311409D01*
X15600000Y-11368552D02*
X15619048Y-11378076D01*
X15657143Y-11378076D01*
X15676190Y-11368552D01*
X15685714Y-11349505D01*
X15685714Y-11339981D01*
X15676190Y-11320933D01*
X15657143Y-11311409D01*
X15628571Y-11311409D01*
X15609524Y-11301886D01*
X15600000Y-11282838D01*
X15600000Y-11273314D01*
X15609524Y-11254267D01*
X15628571Y-11244743D01*
X15657143Y-11244743D01*
X15676190Y-11254267D01*
X15752381Y-11454267D02*
X15761905Y-11444743D01*
X15780952Y-11416171D01*
X15790476Y-11397124D01*
X15800000Y-11368552D01*
X15809524Y-11320933D01*
X15809524Y-11282838D01*
X15800000Y-11235219D01*
X15790476Y-11206648D01*
X15780952Y-11187600D01*
X15761905Y-11159029D01*
X15752381Y-11149505D01*
D13*
X10790000Y-11551600D02*
G75*
G03*
X10790000Y-11551600I-50000J0D01*
G01*
D11*
X11152381Y-11642076D02*
X11038095Y-11642076D01*
X11095238Y-11642076D02*
X11095238Y-11442076D01*
X11076190Y-11470648D01*
X11057143Y-11489695D01*
X11038095Y-11499219D01*
X11238095Y-11623028D02*
X11247619Y-11632552D01*
X11238095Y-11642076D01*
X11228571Y-11632552D01*
X11238095Y-11623028D01*
X11238095Y-11642076D01*
X11371428Y-11442076D02*
X11390476Y-11442076D01*
X11409524Y-11451600D01*
X11419048Y-11461124D01*
X11428571Y-11480171D01*
X11438095Y-11518267D01*
X11438095Y-11565886D01*
X11428571Y-11603981D01*
X11419048Y-11623028D01*
X11409524Y-11632552D01*
X11390476Y-11642076D01*
X11371428Y-11642076D01*
X11352381Y-11632552D01*
X11342857Y-11623028D01*
X11333333Y-11603981D01*
X11323809Y-11565886D01*
X11323809Y-11518267D01*
X11333333Y-11480171D01*
X11342857Y-11461124D01*
X11352381Y-11451600D01*
X11371428Y-11442076D01*
X11561905Y-11442076D02*
X11580952Y-11442076D01*
X11600000Y-11451600D01*
X11609524Y-11461124D01*
X11619048Y-11480171D01*
X11628571Y-11518267D01*
X11628571Y-11565886D01*
X11619048Y-11603981D01*
X11609524Y-11623028D01*
X11600000Y-11632552D01*
X11580952Y-11642076D01*
X11561905Y-11642076D01*
X11542857Y-11632552D01*
X11533333Y-11623028D01*
X11523809Y-11603981D01*
X11514286Y-11565886D01*
X11514286Y-11518267D01*
X11523809Y-11480171D01*
X11533333Y-11461124D01*
X11542857Y-11451600D01*
X11561905Y-11442076D01*
X11752381Y-11442076D02*
X11771428Y-11442076D01*
X11790476Y-11451600D01*
X11800000Y-11461124D01*
X11809524Y-11480171D01*
X11819048Y-11518267D01*
X11819048Y-11565886D01*
X11809524Y-11603981D01*
X11800000Y-11623028D01*
X11790476Y-11632552D01*
X11771428Y-11642076D01*
X11752381Y-11642076D01*
X11733333Y-11632552D01*
X11723809Y-11623028D01*
X11714286Y-11603981D01*
X11704762Y-11565886D01*
X11704762Y-11518267D01*
X11714286Y-11480171D01*
X11723809Y-11461124D01*
X11733333Y-11451600D01*
X11752381Y-11442076D01*
X11904762Y-11642076D02*
X11904762Y-11508743D01*
X11904762Y-11527790D02*
X11914286Y-11518267D01*
X11933333Y-11508743D01*
X11961905Y-11508743D01*
X11980952Y-11518267D01*
X11990476Y-11537314D01*
X11990476Y-11642076D01*
X11990476Y-11537314D02*
X12000000Y-11518267D01*
X12019048Y-11508743D01*
X12047619Y-11508743D01*
X12066667Y-11518267D01*
X12076190Y-11537314D01*
X12076190Y-11642076D01*
X12171428Y-11642076D02*
X12171428Y-11508743D01*
X12171428Y-11527790D02*
X12180952Y-11518267D01*
X12200000Y-11508743D01*
X12228571Y-11508743D01*
X12247619Y-11518267D01*
X12257143Y-11537314D01*
X12257143Y-11642076D01*
X12257143Y-11537314D02*
X12266667Y-11518267D01*
X12285714Y-11508743D01*
X12314286Y-11508743D01*
X12333333Y-11518267D01*
X12342857Y-11537314D01*
X12342857Y-11642076D01*
X12733333Y-11432552D02*
X12561905Y-11689695D01*
X12990476Y-11442076D02*
X13009524Y-11442076D01*
X13028571Y-11451600D01*
X13038095Y-11461124D01*
X13047619Y-11480171D01*
X13057143Y-11518267D01*
X13057143Y-11565886D01*
X13047619Y-11603981D01*
X13038095Y-11623028D01*
X13028571Y-11632552D01*
X13009524Y-11642076D01*
X12990476Y-11642076D01*
X12971428Y-11632552D01*
X12961905Y-11623028D01*
X12952381Y-11603981D01*
X12942857Y-11565886D01*
X12942857Y-11518267D01*
X12952381Y-11480171D01*
X12961905Y-11461124D01*
X12971428Y-11451600D01*
X12990476Y-11442076D01*
X13142857Y-11623028D02*
X13152381Y-11632552D01*
X13142857Y-11642076D01*
X13133333Y-11632552D01*
X13142857Y-11623028D01*
X13142857Y-11642076D01*
X13276190Y-11442076D02*
X13295238Y-11442076D01*
X13314286Y-11451600D01*
X13323809Y-11461124D01*
X13333333Y-11480171D01*
X13342857Y-11518267D01*
X13342857Y-11565886D01*
X13333333Y-11603981D01*
X13323809Y-11623028D01*
X13314286Y-11632552D01*
X13295238Y-11642076D01*
X13276190Y-11642076D01*
X13257143Y-11632552D01*
X13247619Y-11623028D01*
X13238095Y-11603981D01*
X13228571Y-11565886D01*
X13228571Y-11518267D01*
X13238095Y-11480171D01*
X13247619Y-11461124D01*
X13257143Y-11451600D01*
X13276190Y-11442076D01*
X13409524Y-11442076D02*
X13533333Y-11442076D01*
X13466667Y-11518267D01*
X13495238Y-11518267D01*
X13514286Y-11527790D01*
X13523809Y-11537314D01*
X13533333Y-11556362D01*
X13533333Y-11603981D01*
X13523809Y-11623028D01*
X13514286Y-11632552D01*
X13495238Y-11642076D01*
X13438095Y-11642076D01*
X13419048Y-11632552D01*
X13409524Y-11623028D01*
X13628571Y-11642076D02*
X13666667Y-11642076D01*
X13685714Y-11632552D01*
X13695238Y-11623028D01*
X13714286Y-11594457D01*
X13723809Y-11556362D01*
X13723809Y-11480171D01*
X13714286Y-11461124D01*
X13704762Y-11451600D01*
X13685714Y-11442076D01*
X13647619Y-11442076D01*
X13628571Y-11451600D01*
X13619048Y-11461124D01*
X13609524Y-11480171D01*
X13609524Y-11527790D01*
X13619048Y-11546838D01*
X13628571Y-11556362D01*
X13647619Y-11565886D01*
X13685714Y-11565886D01*
X13704762Y-11556362D01*
X13714286Y-11546838D01*
X13723809Y-11527790D01*
X13895238Y-11508743D02*
X13895238Y-11642076D01*
X13847619Y-11432552D02*
X13800000Y-11575409D01*
X13923809Y-11575409D01*
X13990476Y-11442076D02*
X13990476Y-11480171D01*
X14066667Y-11442076D02*
X14066667Y-11480171D01*
X14361905Y-11718267D02*
X14352381Y-11708743D01*
X14333333Y-11680171D01*
X14323809Y-11661124D01*
X14314286Y-11632552D01*
X14304762Y-11584933D01*
X14304762Y-11546838D01*
X14314286Y-11499219D01*
X14323809Y-11470648D01*
X14333333Y-11451600D01*
X14352381Y-11423028D01*
X14361905Y-11413505D01*
X14523809Y-11508743D02*
X14523809Y-11642076D01*
X14476190Y-11432552D02*
X14428571Y-11575409D01*
X14552381Y-11575409D01*
X14733333Y-11642076D02*
X14619048Y-11642076D01*
X14676190Y-11642076D02*
X14676190Y-11442076D01*
X14657143Y-11470648D01*
X14638095Y-11489695D01*
X14619048Y-11499219D01*
X14971428Y-11642076D02*
X14971428Y-11442076D01*
X15057143Y-11642076D02*
X15057143Y-11537314D01*
X15047619Y-11518267D01*
X15028571Y-11508743D01*
X15000000Y-11508743D01*
X14980952Y-11518267D01*
X14971428Y-11527790D01*
X15180952Y-11642076D02*
X15161905Y-11632552D01*
X15152381Y-11623028D01*
X15142857Y-11603981D01*
X15142857Y-11546838D01*
X15152381Y-11527790D01*
X15161905Y-11518267D01*
X15180952Y-11508743D01*
X15209524Y-11508743D01*
X15228571Y-11518267D01*
X15238095Y-11527790D01*
X15247619Y-11546838D01*
X15247619Y-11603981D01*
X15238095Y-11623028D01*
X15228571Y-11632552D01*
X15209524Y-11642076D01*
X15180952Y-11642076D01*
X15361905Y-11642076D02*
X15342857Y-11632552D01*
X15333333Y-11613505D01*
X15333333Y-11442076D01*
X15514286Y-11632552D02*
X15495238Y-11642076D01*
X15457143Y-11642076D01*
X15438095Y-11632552D01*
X15428571Y-11613505D01*
X15428571Y-11537314D01*
X15438095Y-11518267D01*
X15457143Y-11508743D01*
X15495238Y-11508743D01*
X15514286Y-11518267D01*
X15523809Y-11537314D01*
X15523809Y-11556362D01*
X15428571Y-11575409D01*
X15600000Y-11632552D02*
X15619048Y-11642076D01*
X15657143Y-11642076D01*
X15676190Y-11632552D01*
X15685714Y-11613505D01*
X15685714Y-11603981D01*
X15676190Y-11584933D01*
X15657143Y-11575409D01*
X15628571Y-11575409D01*
X15609524Y-11565886D01*
X15600000Y-11546838D01*
X15600000Y-11537314D01*
X15609524Y-11518267D01*
X15628571Y-11508743D01*
X15657143Y-11508743D01*
X15676190Y-11518267D01*
X15752381Y-11718267D02*
X15761905Y-11708743D01*
X15780952Y-11680171D01*
X15790476Y-11661124D01*
X15800000Y-11632552D01*
X15809524Y-11584933D01*
X15809524Y-11546838D01*
X15800000Y-11499219D01*
X15790476Y-11470648D01*
X15780952Y-11451600D01*
X15761905Y-11423028D01*
X15752381Y-11413505D01*
X10690000Y-11715600D02*
X10690000Y-11915600D01*
X10590000Y-11815600D02*
X10790000Y-11815600D01*
X11038095Y-11725124D02*
X11047619Y-11715600D01*
X11066667Y-11706076D01*
X11114286Y-11706076D01*
X11133333Y-11715600D01*
X11142857Y-11725124D01*
X11152381Y-11744171D01*
X11152381Y-11763219D01*
X11142857Y-11791790D01*
X11028571Y-11906076D01*
X11152381Y-11906076D01*
X11238095Y-11887028D02*
X11247619Y-11896552D01*
X11238095Y-11906076D01*
X11228571Y-11896552D01*
X11238095Y-11887028D01*
X11238095Y-11906076D01*
X11371428Y-11706076D02*
X11390476Y-11706076D01*
X11409524Y-11715600D01*
X11419048Y-11725124D01*
X11428571Y-11744171D01*
X11438095Y-11782267D01*
X11438095Y-11829886D01*
X11428571Y-11867981D01*
X11419048Y-11887028D01*
X11409524Y-11896552D01*
X11390476Y-11906076D01*
X11371428Y-11906076D01*
X11352381Y-11896552D01*
X11342857Y-11887028D01*
X11333333Y-11867981D01*
X11323809Y-11829886D01*
X11323809Y-11782267D01*
X11333333Y-11744171D01*
X11342857Y-11725124D01*
X11352381Y-11715600D01*
X11371428Y-11706076D01*
X11561905Y-11706076D02*
X11580952Y-11706076D01*
X11600000Y-11715600D01*
X11609524Y-11725124D01*
X11619048Y-11744171D01*
X11628571Y-11782267D01*
X11628571Y-11829886D01*
X11619048Y-11867981D01*
X11609524Y-11887028D01*
X11600000Y-11896552D01*
X11580952Y-11906076D01*
X11561905Y-11906076D01*
X11542857Y-11896552D01*
X11533333Y-11887028D01*
X11523809Y-11867981D01*
X11514286Y-11829886D01*
X11514286Y-11782267D01*
X11523809Y-11744171D01*
X11533333Y-11725124D01*
X11542857Y-11715600D01*
X11561905Y-11706076D01*
X11752381Y-11706076D02*
X11771428Y-11706076D01*
X11790476Y-11715600D01*
X11800000Y-11725124D01*
X11809524Y-11744171D01*
X11819048Y-11782267D01*
X11819048Y-11829886D01*
X11809524Y-11867981D01*
X11800000Y-11887028D01*
X11790476Y-11896552D01*
X11771428Y-11906076D01*
X11752381Y-11906076D01*
X11733333Y-11896552D01*
X11723809Y-11887028D01*
X11714286Y-11867981D01*
X11704762Y-11829886D01*
X11704762Y-11782267D01*
X11714286Y-11744171D01*
X11723809Y-11725124D01*
X11733333Y-11715600D01*
X11752381Y-11706076D01*
X11904762Y-11906076D02*
X11904762Y-11772743D01*
X11904762Y-11791790D02*
X11914286Y-11782267D01*
X11933333Y-11772743D01*
X11961905Y-11772743D01*
X11980952Y-11782267D01*
X11990476Y-11801314D01*
X11990476Y-11906076D01*
X11990476Y-11801314D02*
X12000000Y-11782267D01*
X12019048Y-11772743D01*
X12047619Y-11772743D01*
X12066667Y-11782267D01*
X12076190Y-11801314D01*
X12076190Y-11906076D01*
X12171428Y-11906076D02*
X12171428Y-11772743D01*
X12171428Y-11791790D02*
X12180952Y-11782267D01*
X12200000Y-11772743D01*
X12228571Y-11772743D01*
X12247619Y-11782267D01*
X12257143Y-11801314D01*
X12257143Y-11906076D01*
X12257143Y-11801314D02*
X12266667Y-11782267D01*
X12285714Y-11772743D01*
X12314286Y-11772743D01*
X12333333Y-11782267D01*
X12342857Y-11801314D01*
X12342857Y-11906076D01*
X12733333Y-11696552D02*
X12561905Y-11953695D01*
X12990476Y-11706076D02*
X13009524Y-11706076D01*
X13028571Y-11715600D01*
X13038095Y-11725124D01*
X13047619Y-11744171D01*
X13057143Y-11782267D01*
X13057143Y-11829886D01*
X13047619Y-11867981D01*
X13038095Y-11887028D01*
X13028571Y-11896552D01*
X13009524Y-11906076D01*
X12990476Y-11906076D01*
X12971428Y-11896552D01*
X12961905Y-11887028D01*
X12952381Y-11867981D01*
X12942857Y-11829886D01*
X12942857Y-11782267D01*
X12952381Y-11744171D01*
X12961905Y-11725124D01*
X12971428Y-11715600D01*
X12990476Y-11706076D01*
X13142857Y-11887028D02*
X13152381Y-11896552D01*
X13142857Y-11906076D01*
X13133333Y-11896552D01*
X13142857Y-11887028D01*
X13142857Y-11906076D01*
X13276190Y-11706076D02*
X13295238Y-11706076D01*
X13314286Y-11715600D01*
X13323809Y-11725124D01*
X13333333Y-11744171D01*
X13342857Y-11782267D01*
X13342857Y-11829886D01*
X13333333Y-11867981D01*
X13323809Y-11887028D01*
X13314286Y-11896552D01*
X13295238Y-11906076D01*
X13276190Y-11906076D01*
X13257143Y-11896552D01*
X13247619Y-11887028D01*
X13238095Y-11867981D01*
X13228571Y-11829886D01*
X13228571Y-11782267D01*
X13238095Y-11744171D01*
X13247619Y-11725124D01*
X13257143Y-11715600D01*
X13276190Y-11706076D01*
X13409524Y-11706076D02*
X13542857Y-11706076D01*
X13457143Y-11906076D01*
X13647619Y-11791790D02*
X13628571Y-11782267D01*
X13619048Y-11772743D01*
X13609524Y-11753695D01*
X13609524Y-11744171D01*
X13619048Y-11725124D01*
X13628571Y-11715600D01*
X13647619Y-11706076D01*
X13685714Y-11706076D01*
X13704762Y-11715600D01*
X13714286Y-11725124D01*
X13723809Y-11744171D01*
X13723809Y-11753695D01*
X13714286Y-11772743D01*
X13704762Y-11782267D01*
X13685714Y-11791790D01*
X13647619Y-11791790D01*
X13628571Y-11801314D01*
X13619048Y-11810838D01*
X13609524Y-11829886D01*
X13609524Y-11867981D01*
X13619048Y-11887028D01*
X13628571Y-11896552D01*
X13647619Y-11906076D01*
X13685714Y-11906076D01*
X13704762Y-11896552D01*
X13714286Y-11887028D01*
X13723809Y-11867981D01*
X13723809Y-11829886D01*
X13714286Y-11810838D01*
X13704762Y-11801314D01*
X13685714Y-11791790D01*
X13790476Y-11706076D02*
X13923809Y-11706076D01*
X13838095Y-11906076D01*
X13990476Y-11706076D02*
X13990476Y-11744171D01*
X14066667Y-11706076D02*
X14066667Y-11744171D01*
X14361905Y-11982267D02*
X14352381Y-11972743D01*
X14333333Y-11944171D01*
X14323809Y-11925124D01*
X14314286Y-11896552D01*
X14304762Y-11848933D01*
X14304762Y-11810838D01*
X14314286Y-11763219D01*
X14323809Y-11734648D01*
X14333333Y-11715600D01*
X14352381Y-11687028D01*
X14361905Y-11677505D01*
X14419048Y-11706076D02*
X14552381Y-11706076D01*
X14466667Y-11906076D01*
X14780952Y-11906076D02*
X14780952Y-11706076D01*
X14866667Y-11906076D02*
X14866667Y-11801314D01*
X14857143Y-11782267D01*
X14838095Y-11772743D01*
X14809524Y-11772743D01*
X14790476Y-11782267D01*
X14780952Y-11791790D01*
X14990476Y-11906076D02*
X14971428Y-11896552D01*
X14961905Y-11887028D01*
X14952381Y-11867981D01*
X14952381Y-11810838D01*
X14961905Y-11791790D01*
X14971428Y-11782267D01*
X14990476Y-11772743D01*
X15019048Y-11772743D01*
X15038095Y-11782267D01*
X15047619Y-11791790D01*
X15057143Y-11810838D01*
X15057143Y-11867981D01*
X15047619Y-11887028D01*
X15038095Y-11896552D01*
X15019048Y-11906076D01*
X14990476Y-11906076D01*
X15171428Y-11906076D02*
X15152381Y-11896552D01*
X15142857Y-11877505D01*
X15142857Y-11706076D01*
X15323809Y-11896552D02*
X15304762Y-11906076D01*
X15266667Y-11906076D01*
X15247619Y-11896552D01*
X15238095Y-11877505D01*
X15238095Y-11801314D01*
X15247619Y-11782267D01*
X15266667Y-11772743D01*
X15304762Y-11772743D01*
X15323809Y-11782267D01*
X15333333Y-11801314D01*
X15333333Y-11820362D01*
X15238095Y-11839409D01*
X15409524Y-11896552D02*
X15428571Y-11906076D01*
X15466667Y-11906076D01*
X15485714Y-11896552D01*
X15495238Y-11877505D01*
X15495238Y-11867981D01*
X15485714Y-11848933D01*
X15466667Y-11839409D01*
X15438095Y-11839409D01*
X15419048Y-11829886D01*
X15409524Y-11810838D01*
X15409524Y-11801314D01*
X15419048Y-11782267D01*
X15438095Y-11772743D01*
X15466667Y-11772743D01*
X15485714Y-11782267D01*
X15561905Y-11982267D02*
X15571428Y-11972743D01*
X15590476Y-11944171D01*
X15600000Y-11925124D01*
X15609524Y-11896552D01*
X15619048Y-11848933D01*
X15619048Y-11810838D01*
X15609524Y-11763219D01*
X15600000Y-11734648D01*
X15590476Y-11715600D01*
X15571428Y-11687028D01*
X15561905Y-11677505D01*
M02*
