G04 #@! TF.GenerationSoftware,KiCad,Pcbnew,(6.0.6)*
G04 #@! TF.CreationDate,2022-08-10T20:14:49+02:00*
G04 #@! TF.ProjectId,joystick,6a6f7973-7469-4636-9b2e-6b696361645f,rev?*
G04 #@! TF.SameCoordinates,Original*
G04 #@! TF.FileFunction,Soldermask,Top*
G04 #@! TF.FilePolarity,Negative*
%FSLAX46Y46*%
G04 Gerber Fmt 4.6, Leading zero omitted, Abs format (unit mm)*
G04 Created by KiCad (PCBNEW (6.0.6)) date 2022-08-10 20:14:49*
%MOMM*%
%LPD*%
G01*
G04 APERTURE LIST*
%ADD10R,1.700000X1.700000*%
%ADD11O,1.700000X1.700000*%
%ADD12C,3.000000*%
G04 APERTURE END LIST*
D10*
X125730000Y-95016000D03*
D11*
X125730000Y-92476000D03*
X128270000Y-95016000D03*
X128270000Y-92476000D03*
X130810000Y-95016000D03*
X130810000Y-92476000D03*
X133350000Y-95016000D03*
X133350000Y-92476000D03*
X135890000Y-95016000D03*
X135890000Y-92476000D03*
X138430000Y-95016000D03*
X138430000Y-92476000D03*
X140970000Y-95016000D03*
X140970000Y-92476000D03*
X143510000Y-95016000D03*
X143510000Y-92476000D03*
X146050000Y-95016000D03*
X146050000Y-92476000D03*
X148590000Y-95016000D03*
X148590000Y-92476000D03*
X151130000Y-95016000D03*
X151130000Y-92476000D03*
X153670000Y-95016000D03*
X153670000Y-92476000D03*
X156210000Y-95016000D03*
X156210000Y-92476000D03*
X158750000Y-95016000D03*
X158750000Y-92476000D03*
X161290000Y-95016000D03*
X161290000Y-92476000D03*
X163830000Y-95016000D03*
X163830000Y-92476000D03*
D12*
X130980000Y-97790000D03*
X134980000Y-97790000D03*
X138980000Y-97790000D03*
X145480000Y-97790000D03*
X149480000Y-97790000D03*
X153480000Y-97790000D03*
X157480000Y-97790000D03*
D11*
X119380000Y-102870000D03*
X119380000Y-100330000D03*
D10*
X119380000Y-97790000D03*
D11*
X115570000Y-102885000D03*
X115570000Y-100345000D03*
D10*
X115570000Y-97805000D03*
D11*
X111760000Y-102885000D03*
X111760000Y-100345000D03*
D10*
X111760000Y-97805000D03*
M02*
