M48
; DRILL file {KiCad (6.0.6)} date Wed Aug 10 20:15:29 2022
; FORMAT={-:-/ absolute / metric / decimal}
; #@! TF.CreationDate,2022-08-10T20:15:29+02:00
; #@! TF.GenerationSoftware,Kicad,Pcbnew,(6.0.6)
; #@! TF.FileFunction,Plated,1,2,PTH
FMAT,2
METRIC
; #@! TA.AperFunction,Plated,PTH,ViaDrill
T1C0.400
; #@! TA.AperFunction,Plated,PTH,ComponentDrill
T2C1.000
; #@! TA.AperFunction,Plated,PTH,ComponentDrill
T3C2.000
%
G90
G05
T1
X108.966Y-89.662
X109.22Y-105.156
X121.412Y-92.202
X122.428Y-96.52
X122.428Y-101.346
X123.444Y-90.678
X129.794Y-102.87
X134.112Y-102.87
X138.176Y-104.431
X138.938Y-102.819
X141.478Y-104.902
X166.116Y-90.17
X166.116Y-104.902
T2
X111.76Y-97.805
X111.76Y-100.345
X111.76Y-102.885
X115.57Y-97.805
X115.57Y-100.345
X115.57Y-102.885
X119.38Y-97.79
X119.38Y-100.33
X119.38Y-102.87
X125.73Y-92.476
X125.73Y-95.016
X128.27Y-92.476
X128.27Y-95.016
X130.81Y-92.476
X130.81Y-95.016
X133.35Y-92.476
X133.35Y-95.016
X135.89Y-92.476
X135.89Y-95.016
X138.43Y-92.476
X138.43Y-95.016
X140.97Y-92.476
X140.97Y-95.016
X143.51Y-92.476
X143.51Y-95.016
X146.05Y-92.476
X146.05Y-95.016
X148.59Y-92.476
X148.59Y-95.016
X151.13Y-92.476
X151.13Y-95.016
X153.67Y-92.476
X153.67Y-95.016
X156.21Y-92.476
X156.21Y-95.016
X158.75Y-92.476
X158.75Y-95.016
X161.29Y-92.476
X161.29Y-95.016
X163.83Y-92.476
X163.83Y-95.016
T3
X130.98Y-97.79
X134.98Y-97.79
X138.98Y-97.79
X145.48Y-97.79
X149.48Y-97.79
X153.48Y-97.79
X157.48Y-97.79
T0
M30
