G04 #@! TF.GenerationSoftware,KiCad,Pcbnew,(6.0.6)*
G04 #@! TF.CreationDate,2022-08-10T20:14:49+02:00*
G04 #@! TF.ProjectId,joystick,6a6f7973-7469-4636-9b2e-6b696361645f,rev?*
G04 #@! TF.SameCoordinates,Original*
G04 #@! TF.FileFunction,Legend,Bot*
G04 #@! TF.FilePolarity,Positive*
%FSLAX46Y46*%
G04 Gerber Fmt 4.6, Leading zero omitted, Abs format (unit mm)*
G04 Created by KiCad (PCBNEW (6.0.6)) date 2022-08-10 20:14:49*
%MOMM*%
%LPD*%
G01*
G04 APERTURE LIST*
G04 Aperture macros list*
%AMRoundRect*
0 Rectangle with rounded corners*
0 $1 Rounding radius*
0 $2 $3 $4 $5 $6 $7 $8 $9 X,Y pos of 4 corners*
0 Add a 4 corners polygon primitive as box body*
4,1,4,$2,$3,$4,$5,$6,$7,$8,$9,$2,$3,0*
0 Add four circle primitives for the rounded corners*
1,1,$1+$1,$2,$3*
1,1,$1+$1,$4,$5*
1,1,$1+$1,$6,$7*
1,1,$1+$1,$8,$9*
0 Add four rect primitives between the rounded corners*
20,1,$1+$1,$2,$3,$4,$5,0*
20,1,$1+$1,$4,$5,$6,$7,0*
20,1,$1+$1,$6,$7,$8,$9,0*
20,1,$1+$1,$8,$9,$2,$3,0*%
G04 Aperture macros list end*
%ADD10C,0.062500*%
%ADD11C,0.150000*%
%ADD12C,0.120000*%
%ADD13R,1.700000X1.700000*%
%ADD14O,1.700000X1.700000*%
%ADD15C,3.000000*%
%ADD16RoundRect,0.250000X0.350000X0.450000X-0.350000X0.450000X-0.350000X-0.450000X0.350000X-0.450000X0*%
%ADD17RoundRect,0.250000X-0.450000X0.350000X-0.450000X-0.350000X0.450000X-0.350000X0.450000X0.350000X0*%
%ADD18RoundRect,0.150000X0.587500X0.150000X-0.587500X0.150000X-0.587500X-0.150000X0.587500X-0.150000X0*%
G04 APERTURE END LIST*
D10*
X162583523Y-102431904D02*
X162583523Y-103003333D01*
X162607333Y-103117619D01*
X162654952Y-103193809D01*
X162726380Y-103231904D01*
X162774000Y-103231904D01*
X162107333Y-103231904D02*
X162345428Y-103231904D01*
X162345428Y-102431904D01*
X161654952Y-103155714D02*
X161678761Y-103193809D01*
X161750190Y-103231904D01*
X161797809Y-103231904D01*
X161869238Y-103193809D01*
X161916857Y-103117619D01*
X161940666Y-103041428D01*
X161964476Y-102889047D01*
X161964476Y-102774761D01*
X161940666Y-102622380D01*
X161916857Y-102546190D01*
X161869238Y-102470000D01*
X161797809Y-102431904D01*
X161750190Y-102431904D01*
X161678761Y-102470000D01*
X161654952Y-102508095D01*
X161297809Y-102431904D02*
X161297809Y-103003333D01*
X161321619Y-103117619D01*
X161369238Y-103193809D01*
X161440666Y-103231904D01*
X161488285Y-103231904D01*
X160821619Y-103231904D02*
X161059714Y-103231904D01*
X161059714Y-102431904D01*
X160369238Y-103155714D02*
X160393047Y-103193809D01*
X160464476Y-103231904D01*
X160512095Y-103231904D01*
X160583523Y-103193809D01*
X160631142Y-103117619D01*
X160654952Y-103041428D01*
X160678761Y-102889047D01*
X160678761Y-102774761D01*
X160654952Y-102622380D01*
X160631142Y-102546190D01*
X160583523Y-102470000D01*
X160512095Y-102431904D01*
X160464476Y-102431904D01*
X160393047Y-102470000D01*
X160369238Y-102508095D01*
X160012095Y-102431904D02*
X160012095Y-103003333D01*
X160035904Y-103117619D01*
X160083523Y-103193809D01*
X160154952Y-103231904D01*
X160202571Y-103231904D01*
X159535904Y-103231904D02*
X159774000Y-103231904D01*
X159774000Y-102431904D01*
X159083523Y-103155714D02*
X159107333Y-103193809D01*
X159178761Y-103231904D01*
X159226380Y-103231904D01*
X159297809Y-103193809D01*
X159345428Y-103117619D01*
X159369238Y-103041428D01*
X159393047Y-102889047D01*
X159393047Y-102774761D01*
X159369238Y-102622380D01*
X159345428Y-102546190D01*
X159297809Y-102470000D01*
X159226380Y-102431904D01*
X159178761Y-102431904D01*
X159107333Y-102470000D01*
X159083523Y-102508095D01*
X158726380Y-102431904D02*
X158726380Y-103003333D01*
X158750190Y-103117619D01*
X158797809Y-103193809D01*
X158869238Y-103231904D01*
X158916857Y-103231904D01*
X158250190Y-103231904D02*
X158488285Y-103231904D01*
X158488285Y-102431904D01*
X157797809Y-103155714D02*
X157821619Y-103193809D01*
X157893047Y-103231904D01*
X157940666Y-103231904D01*
X158012095Y-103193809D01*
X158059714Y-103117619D01*
X158083523Y-103041428D01*
X158107333Y-102889047D01*
X158107333Y-102774761D01*
X158083523Y-102622380D01*
X158059714Y-102546190D01*
X158012095Y-102470000D01*
X157940666Y-102431904D01*
X157893047Y-102431904D01*
X157821619Y-102470000D01*
X157797809Y-102508095D01*
D11*
X122412380Y-93412666D02*
X123126666Y-93412666D01*
X123269523Y-93365047D01*
X123364761Y-93269809D01*
X123412380Y-93126952D01*
X123412380Y-93031714D01*
X123412380Y-94412666D02*
X123412380Y-93841238D01*
X123412380Y-94126952D02*
X122412380Y-94126952D01*
X122555238Y-94031714D01*
X122650476Y-93936476D01*
X122698095Y-93841238D01*
X144946666Y-101672380D02*
X145280000Y-101196190D01*
X145518095Y-101672380D02*
X145518095Y-100672380D01*
X145137142Y-100672380D01*
X145041904Y-100720000D01*
X144994285Y-100767619D01*
X144946666Y-100862857D01*
X144946666Y-101005714D01*
X144994285Y-101100952D01*
X145041904Y-101148571D01*
X145137142Y-101196190D01*
X145518095Y-101196190D01*
X144089523Y-100672380D02*
X144280000Y-100672380D01*
X144375238Y-100720000D01*
X144422857Y-100767619D01*
X144518095Y-100910476D01*
X144565714Y-101100952D01*
X144565714Y-101481904D01*
X144518095Y-101577142D01*
X144470476Y-101624761D01*
X144375238Y-101672380D01*
X144184761Y-101672380D01*
X144089523Y-101624761D01*
X144041904Y-101577142D01*
X143994285Y-101481904D01*
X143994285Y-101243809D01*
X144041904Y-101148571D01*
X144089523Y-101100952D01*
X144184761Y-101053333D01*
X144375238Y-101053333D01*
X144470476Y-101100952D01*
X144518095Y-101148571D01*
X144565714Y-101243809D01*
X114372380Y-92273333D02*
X113896190Y-91940000D01*
X114372380Y-91701904D02*
X113372380Y-91701904D01*
X113372380Y-92082857D01*
X113420000Y-92178095D01*
X113467619Y-92225714D01*
X113562857Y-92273333D01*
X113705714Y-92273333D01*
X113800952Y-92225714D01*
X113848571Y-92178095D01*
X113896190Y-92082857D01*
X113896190Y-91701904D01*
X113372380Y-93178095D02*
X113372380Y-92701904D01*
X113848571Y-92654285D01*
X113800952Y-92701904D01*
X113753333Y-92797142D01*
X113753333Y-93035238D01*
X113800952Y-93130476D01*
X113848571Y-93178095D01*
X113943809Y-93225714D01*
X114181904Y-93225714D01*
X114277142Y-93178095D01*
X114324761Y-93130476D01*
X114372380Y-93035238D01*
X114372380Y-92797142D01*
X114324761Y-92701904D01*
X114277142Y-92654285D01*
X155106666Y-101672380D02*
X155440000Y-101196190D01*
X155678095Y-101672380D02*
X155678095Y-100672380D01*
X155297142Y-100672380D01*
X155201904Y-100720000D01*
X155154285Y-100767619D01*
X155106666Y-100862857D01*
X155106666Y-101005714D01*
X155154285Y-101100952D01*
X155201904Y-101148571D01*
X155297142Y-101196190D01*
X155678095Y-101196190D01*
X154249523Y-101005714D02*
X154249523Y-101672380D01*
X154487619Y-100624761D02*
X154725714Y-101339047D01*
X154106666Y-101339047D01*
X150026666Y-101672380D02*
X150360000Y-101196190D01*
X150598095Y-101672380D02*
X150598095Y-100672380D01*
X150217142Y-100672380D01*
X150121904Y-100720000D01*
X150074285Y-100767619D01*
X150026666Y-100862857D01*
X150026666Y-101005714D01*
X150074285Y-101100952D01*
X150121904Y-101148571D01*
X150217142Y-101196190D01*
X150598095Y-101196190D01*
X149693333Y-100672380D02*
X149074285Y-100672380D01*
X149407619Y-101053333D01*
X149264761Y-101053333D01*
X149169523Y-101100952D01*
X149121904Y-101148571D01*
X149074285Y-101243809D01*
X149074285Y-101481904D01*
X149121904Y-101577142D01*
X149169523Y-101624761D01*
X149264761Y-101672380D01*
X149550476Y-101672380D01*
X149645714Y-101624761D01*
X149693333Y-101577142D01*
X110562380Y-92273333D02*
X110086190Y-91940000D01*
X110562380Y-91701904D02*
X109562380Y-91701904D01*
X109562380Y-92082857D01*
X109610000Y-92178095D01*
X109657619Y-92225714D01*
X109752857Y-92273333D01*
X109895714Y-92273333D01*
X109990952Y-92225714D01*
X110038571Y-92178095D01*
X110086190Y-92082857D01*
X110086190Y-91701904D01*
X109657619Y-92654285D02*
X109610000Y-92701904D01*
X109562380Y-92797142D01*
X109562380Y-93035238D01*
X109610000Y-93130476D01*
X109657619Y-93178095D01*
X109752857Y-93225714D01*
X109848095Y-93225714D01*
X109990952Y-93178095D01*
X110562380Y-92606666D01*
X110562380Y-93225714D01*
X118182380Y-92273333D02*
X117706190Y-91940000D01*
X118182380Y-91701904D02*
X117182380Y-91701904D01*
X117182380Y-92082857D01*
X117230000Y-92178095D01*
X117277619Y-92225714D01*
X117372857Y-92273333D01*
X117515714Y-92273333D01*
X117610952Y-92225714D01*
X117658571Y-92178095D01*
X117706190Y-92082857D01*
X117706190Y-91701904D01*
X118182380Y-93225714D02*
X118182380Y-92654285D01*
X118182380Y-92940000D02*
X117182380Y-92940000D01*
X117325238Y-92844761D01*
X117420476Y-92749523D01*
X117468095Y-92654285D01*
X128365238Y-101017619D02*
X128460476Y-100970000D01*
X128555714Y-100874761D01*
X128698571Y-100731904D01*
X128793809Y-100684285D01*
X128889047Y-100684285D01*
X128841428Y-100922380D02*
X128936666Y-100874761D01*
X129031904Y-100779523D01*
X129079523Y-100589047D01*
X129079523Y-100255714D01*
X129031904Y-100065238D01*
X128936666Y-99970000D01*
X128841428Y-99922380D01*
X128650952Y-99922380D01*
X128555714Y-99970000D01*
X128460476Y-100065238D01*
X128412857Y-100255714D01*
X128412857Y-100589047D01*
X128460476Y-100779523D01*
X128555714Y-100874761D01*
X128650952Y-100922380D01*
X128841428Y-100922380D01*
X128079523Y-99922380D02*
X127460476Y-99922380D01*
X127793809Y-100303333D01*
X127650952Y-100303333D01*
X127555714Y-100350952D01*
X127508095Y-100398571D01*
X127460476Y-100493809D01*
X127460476Y-100731904D01*
X127508095Y-100827142D01*
X127555714Y-100874761D01*
X127650952Y-100922380D01*
X127936666Y-100922380D01*
X128031904Y-100874761D01*
X128079523Y-100827142D01*
X133445238Y-101017619D02*
X133540476Y-100970000D01*
X133635714Y-100874761D01*
X133778571Y-100731904D01*
X133873809Y-100684285D01*
X133969047Y-100684285D01*
X133921428Y-100922380D02*
X134016666Y-100874761D01*
X134111904Y-100779523D01*
X134159523Y-100589047D01*
X134159523Y-100255714D01*
X134111904Y-100065238D01*
X134016666Y-99970000D01*
X133921428Y-99922380D01*
X133730952Y-99922380D01*
X133635714Y-99970000D01*
X133540476Y-100065238D01*
X133492857Y-100255714D01*
X133492857Y-100589047D01*
X133540476Y-100779523D01*
X133635714Y-100874761D01*
X133730952Y-100922380D01*
X133921428Y-100922380D01*
X133111904Y-100017619D02*
X133064285Y-99970000D01*
X132969047Y-99922380D01*
X132730952Y-99922380D01*
X132635714Y-99970000D01*
X132588095Y-100017619D01*
X132540476Y-100112857D01*
X132540476Y-100208095D01*
X132588095Y-100350952D01*
X133159523Y-100922380D01*
X132540476Y-100922380D01*
X138525238Y-101017619D02*
X138620476Y-100970000D01*
X138715714Y-100874761D01*
X138858571Y-100731904D01*
X138953809Y-100684285D01*
X139049047Y-100684285D01*
X139001428Y-100922380D02*
X139096666Y-100874761D01*
X139191904Y-100779523D01*
X139239523Y-100589047D01*
X139239523Y-100255714D01*
X139191904Y-100065238D01*
X139096666Y-99970000D01*
X139001428Y-99922380D01*
X138810952Y-99922380D01*
X138715714Y-99970000D01*
X138620476Y-100065238D01*
X138572857Y-100255714D01*
X138572857Y-100589047D01*
X138620476Y-100779523D01*
X138715714Y-100874761D01*
X138810952Y-100922380D01*
X139001428Y-100922380D01*
X137620476Y-100922380D02*
X138191904Y-100922380D01*
X137906190Y-100922380D02*
X137906190Y-99922380D01*
X138001428Y-100065238D01*
X138096666Y-100160476D01*
X138191904Y-100208095D01*
D12*
X124460000Y-91206000D02*
X124460000Y-93746000D01*
X124400000Y-95016000D02*
X124400000Y-96346000D01*
X124400000Y-96346000D02*
X125730000Y-96346000D01*
X124460000Y-91206000D02*
X165100000Y-91206000D01*
X165100000Y-91206000D02*
X165100000Y-96286000D01*
X145007064Y-102135000D02*
X144552936Y-102135000D01*
X145007064Y-103605000D02*
X144552936Y-103605000D01*
X114835000Y-92212936D02*
X114835000Y-92667064D01*
X116305000Y-92212936D02*
X116305000Y-92667064D01*
X155167064Y-102135000D02*
X154712936Y-102135000D01*
X155167064Y-103605000D02*
X154712936Y-103605000D01*
X150087064Y-102135000D02*
X149632936Y-102135000D01*
X150087064Y-103605000D02*
X149632936Y-103605000D01*
X111025000Y-92212936D02*
X111025000Y-92667064D01*
X112495000Y-92212936D02*
X112495000Y-92667064D01*
X118645000Y-92212936D02*
X118645000Y-92667064D01*
X120115000Y-92212936D02*
X120115000Y-92667064D01*
X128270000Y-101310000D02*
X127620000Y-101310000D01*
X128270000Y-104430000D02*
X127620000Y-104430000D01*
X128270000Y-101310000D02*
X129945000Y-101310000D01*
X128270000Y-104430000D02*
X128920000Y-104430000D01*
X133350000Y-101310000D02*
X132700000Y-101310000D01*
X133350000Y-104430000D02*
X132700000Y-104430000D01*
X133350000Y-101310000D02*
X135025000Y-101310000D01*
X133350000Y-104430000D02*
X134000000Y-104430000D01*
X138430000Y-101310000D02*
X137780000Y-101310000D01*
X138430000Y-104430000D02*
X137780000Y-104430000D01*
X138430000Y-101310000D02*
X140105000Y-101310000D01*
X138430000Y-104430000D02*
X139080000Y-104430000D01*
%LPC*%
D13*
X125730000Y-95016000D03*
D14*
X125730000Y-92476000D03*
X128270000Y-95016000D03*
X128270000Y-92476000D03*
X130810000Y-95016000D03*
X130810000Y-92476000D03*
X133350000Y-95016000D03*
X133350000Y-92476000D03*
X135890000Y-95016000D03*
X135890000Y-92476000D03*
X138430000Y-95016000D03*
X138430000Y-92476000D03*
X140970000Y-95016000D03*
X140970000Y-92476000D03*
X143510000Y-95016000D03*
X143510000Y-92476000D03*
X146050000Y-95016000D03*
X146050000Y-92476000D03*
X148590000Y-95016000D03*
X148590000Y-92476000D03*
X151130000Y-95016000D03*
X151130000Y-92476000D03*
X153670000Y-95016000D03*
X153670000Y-92476000D03*
X156210000Y-95016000D03*
X156210000Y-92476000D03*
X158750000Y-95016000D03*
X158750000Y-92476000D03*
X161290000Y-95016000D03*
X161290000Y-92476000D03*
X163830000Y-95016000D03*
X163830000Y-92476000D03*
D15*
X130980000Y-97790000D03*
X134980000Y-97790000D03*
X138980000Y-97790000D03*
X145480000Y-97790000D03*
X149480000Y-97790000D03*
X153480000Y-97790000D03*
X157480000Y-97790000D03*
D16*
X145780000Y-102870000D03*
X143780000Y-102870000D03*
D17*
X115570000Y-91440000D03*
X115570000Y-93440000D03*
D16*
X155940000Y-102870000D03*
X153940000Y-102870000D03*
X150860000Y-102870000D03*
X148860000Y-102870000D03*
D17*
X111760000Y-91440000D03*
X111760000Y-93440000D03*
X119380000Y-91440000D03*
X119380000Y-93440000D03*
D18*
X129207500Y-101920000D03*
X129207500Y-103820000D03*
X127332500Y-102870000D03*
X134287500Y-101920000D03*
X134287500Y-103820000D03*
X132412500Y-102870000D03*
X139367500Y-101920000D03*
X139367500Y-103820000D03*
X137492500Y-102870000D03*
D14*
X119380000Y-102870000D03*
X119380000Y-100330000D03*
D13*
X119380000Y-97790000D03*
D14*
X115570000Y-102885000D03*
X115570000Y-100345000D03*
D13*
X115570000Y-97805000D03*
D14*
X111760000Y-102885000D03*
X111760000Y-100345000D03*
D13*
X111760000Y-97805000D03*
M02*
